<svg xmlns="http://www.w3.org/2000/svg" xmlns:xlink="http://www.w3.org/1999/xlink">
    <symbol id="key" viewBox="0 0 24 13.49">
        <g transform="translate(-18 -23)">
            <circle id="Эллипс_6" data-name="Эллипс 6" cx="1.404" cy="1.404" r="1.404" transform="translate(23.286 28.332)" fill="currentColor"/>
            <path id="Контур_35" data-name="Контур 35" d="M363.935-429.094h-7.327a6.765,6.765,0,0,0-6.127-3.937,6.753,6.753,0,0,0-6.745,6.745,6.753,6.753,0,0,0,6.745,6.745,6.767,6.767,0,0,0,6.127-3.937h11.128v-3.091Zm2.269,4.084H355.559l-.184.5a5.228,5.228,0,0,1-4.894,3.434,5.219,5.219,0,0,1-5.213-5.213,5.219,5.219,0,0,1,5.213-5.213,5.226,5.226,0,0,1,4.894,3.433l.184.5h7.913l2.732,1.815Z" transform="translate(-325.736 456.031)" color="currentColor"/>
          </g>
    </symbol>

    <symbol id="cart" viewBox="0 0 24 24">
        <g transform="translate(-148 -530)">
            <path color="currentColor" data-name="Контур 33" d="M204.4-454.307H191.809l-.394-1.486h7.923a4.873,4.873,0,0,0,4.523-3.079l3.2-7.9H188.5l-.385-1.45a5.264,5.264,0,0,0-5.06-3.937v1.515a3.766,3.766,0,0,1,3.619,2.816l3.988,15.038H204.4Zm.427-10.951-2.35,5.81a3.385,3.385,0,0,1-3.142,2.14h-8.325l-2.108-7.95Z" transform="translate(-35.058 1002.162)" />
            <ellipse fill="currentColor" data-name="Эллипс 4" cx="1.493" cy="1.516" rx="1.493" ry="1.516" transform="translate(166.36 550.968)" />
            <ellipse fill="currentColor" data-name="Эллипс 5" cx="1.493" cy="1.516" rx="1.493" ry="1.516" transform="translate(156.185 550.968)" />
        </g>
    </symbol>

    <symbol id="catalog" viewBox="0 0 24 18">
        <rect id="Прямоугольник_31" data-name="Прямоугольник 31" width="16.722" height="1.5" transform="translate(7.278)" color="currentColor"/>
        <rect id="Прямоугольник_32" data-name="Прямоугольник 32" width="16.722" height="1.5" transform="translate(7.278 8.249)" color="currentColor"/>
        <rect id="Прямоугольник_33" data-name="Прямоугольник 33" width="16.722" height="1.5" transform="translate(7.278 16.5)" color="currentColor"/>
        <rect id="Прямоугольник_35" data-name="Прямоугольник 35" width="4.911" height="1.5" fill="currentColor"/>
        <rect id="Прямоугольник_36" data-name="Прямоугольник 36" width="4.911" height="1.5" transform="translate(0 8.249)" fill="currentColor"/>
        <rect id="Прямоугольник_37" data-name="Прямоугольник 37" width="4.911" height="1.5" transform="translate(0 16.5)" fill="currentColor"/>
    </symbol>

    <symbol id="compare" viewBox="0 0 18.5 24">
        <rect id="Прямоугольник_22" data-name="Прямоугольник 22" width="1.5" height="24" color="currentColor"/>
        <rect id="Прямоугольник_23" data-name="Прямоугольник 23" width="1.5" height="12.18" transform="translate(5.667 11.82)" color="currentColor"/>
        <rect id="Прямоугольник_24" data-name="Прямоугольник 24" width="1.5" height="7.884" transform="translate(11.333 3.6)" fill="currentColor"/>
        <rect id="Прямоугольник_25" data-name="Прямоугольник 25" width="1.5" height="16.98" transform="translate(17 7.02)" color="currentColor"/>
        <rect id="Прямоугольник_24-2" data-name="Прямоугольник 24" width="1.5" height="10.871" transform="translate(11.333 13.129)" color="currentColor"/>
    </symbol>

    <symbol id="favorites" viewBox="0 0 24 23.281">
        <path id="Контур_36" data-name="Контур 36" d="M256.457,197.692h-1.042c-1.176-1.2-11.48-11.886-11.48-15.8,0-4.125,3.027-7.481,6.746-7.481a6.524,6.524,0,0,1,5.254,2.79,6.518,6.518,0,0,1,5.253-2.79c3.72,0,6.747,3.356,6.747,7.481C267.936,185.806,257.632,196.487,256.457,197.692Zm-5.775-21.78c-2.91,0-5.277,2.683-5.277,5.981,0,2.383,6.251,9.741,10.531,14.2,4.28-4.461,10.531-11.819,10.531-14.2,0-3.3-2.368-5.981-5.278-5.981a5.219,5.219,0,0,0-4.6,3.051h-1.31A5.221,5.221,0,0,0,250.682,175.912Z" transform="translate(-243.935 -174.411)" color="currentColor"/>
        <path id="Контур_36-2" data-name="Контур 36" d="M266.467,181.893c0-3.3-2.368-5.981-5.278-5.981a5.219,5.219,0,0,0-4.6,3.051l-.654-.061v-1.7a6.518,6.518,0,0,1,5.253-2.79c3.72,0,6.747,3.356,6.747,7.481Z" transform="translate(-243.935 -174.411)"  fill="currentColor"/>
    </symbol>

    <symbol id="operator" viewBox="0 0 22.003 24">
        <g transform="translate(-468.336 491.981)">
            <path id="Контур_37" data-name="Контур 37" d="M478.069-481.4a1.618,1.618,0,0,0-1.619-1.618,1.618,1.618,0,0,0-1.619,1.618,1.619,1.619,0,0,0,1.619,1.619A1.619,1.619,0,0,0,478.069-481.4Z" fill="#ea5e20"/>
            <path id="Контур_38" data-name="Контур 38" d="M483.849-481.4a1.618,1.618,0,0,0-1.619-1.618,1.618,1.618,0,0,0-1.619,1.618,1.619,1.619,0,0,0,1.619,1.619A1.619,1.619,0,0,0,483.849-481.4Z" fill="#ea5e20"/>
            <path id="Контур_39" data-name="Контур 39" d="M490.339-480.6a2.883,2.883,0,0,0-2.65-2.865v-.17a8.359,8.359,0,0,0-8.349-8.349,8.3,8.3,0,0,0-5.2,1.827h-.075c0,.018.005.035.005.052a8.335,8.335,0,0,0-3.08,6.47v.239a2.884,2.884,0,0,0-2.655,2.866,2.885,2.885,0,0,0,2.655,2.866l1.532.02v-5.991a6.794,6.794,0,0,1,2.058-4.873c1.453,2.273,5.884,3.877,11.52,4.041a6.72,6.72,0,0,1,.056.832v5.879a6.784,6.784,0,0,1-3.6,5.992,2.489,2.489,0,0,0-2.235-1.408h-1.972a2.5,2.5,0,0,0-2.495,2.5v.2a2.5,2.5,0,0,0,2.495,2.5h1.972a2.491,2.491,0,0,0,2.464-2.185,8.315,8.315,0,0,0,4.9-7.565A2.884,2.884,0,0,0,490.339-480.6Zm-20.471,0a1.357,1.357,0,0,1,1.123-1.334v2.668A1.357,1.357,0,0,1,469.868-480.6Zm11.421,10.12a.964.964,0,0,1-.963.964h-1.972a.965.965,0,0,1-.963-.964v-.2a.964.964,0,0,1,.963-.964h1.972a.964.964,0,0,1,.963.964ZM475.8-489.445a6.762,6.762,0,0,1,3.543-1.005,6.822,6.822,0,0,1,6.382,4.443C480.459-486.239,476.675-487.82,475.8-489.445Zm11.892,10.182v-2.667a1.357,1.357,0,0,1,1.118,1.333A1.358,1.358,0,0,1,487.689-479.263Z" fill="#ea5e20"/>
          </g>
    </symbol>

    <symbol id="search" viewBox="0 0 20.002 19.998">
        <g transform="translate(-298.935 -164.729)">
            <rect id="Прямоугольник_185" data-name="Прямоугольник 185" width="1.48" height="7.946" transform="translate(312.269 179.111) rotate(-45.027)" fill="#7b7b8d"/>
            <path id="Контур_41" data-name="Контур 41" d="M313.316,178.063a8.139,8.139,0,1,0-1.046,1.047Zm-6.246,1.453a6.655,6.655,0,1,1,6.654-6.654,6.663,6.663,0,0,1-6.654,6.654Z" fill="#ea5e20"/>
        </g>
    </symbol>

    <symbol id="catalog1" width="24" height="24" viewBox="0 0 24 24">
        <g id="Сгруппировать_46" data-name="Сгруппировать 46" transform="translate(11.381)">
            <path id="Контур_340" data-name="Контур 340" d="M646.434-268.979l1.045-1.062a1.825,1.825,0,0,0,.725.149,1.871,1.871,0,0,0,1.855-1.887,1.872,1.872,0,0,0-1.855-1.887,1.872,1.872,0,0,0-1.856,1.887,1.916,1.916,0,0,0,.147.737l-.841.856h-3.576v1.415h3.864A.688.688,0,0,0,646.434-268.979Z" transform="translate(-642.078 273.666)" color="currentColor"/>
            <path id="Контур_341" data-name="Контур 341" d="M646.717-265.469v1.415h3.863a.687.687,0,0,0,.492-.207l1.045-1.063a1.829,1.829,0,0,0,.725.15,1.871,1.871,0,0,0,1.855-1.887,1.871,1.871,0,0,0-1.855-1.887,1.871,1.871,0,0,0-1.855,1.887,1.9,1.9,0,0,0,.147.736l-.842.856Z" transform="translate(-642.078 273.666)" color="currentColor"/>
            <path id="Контур_342" data-name="Контур 342" d="M648.2-253.44a1.826,1.826,0,0,0-.725.15l-1.045-1.063a.691.691,0,0,0-.492-.207h-3.864v1.415h3.576l.841.856a1.914,1.914,0,0,0-.147.736,1.871,1.871,0,0,0,1.856,1.887,1.871,1.871,0,0,0,1.855-1.887A1.872,1.872,0,0,0,648.2-253.44Z" transform="translate(-642.078 273.666)" color="currentColor"/>
            <path id="Контур_343" data-name="Контур 343" d="M652.842-258.157a1.829,1.829,0,0,0-.725.15l-1.045-1.063a.687.687,0,0,0-.492-.207h-3.863v1.415h3.575l.842.855a1.9,1.9,0,0,0-.147.737,1.871,1.871,0,0,0,1.855,1.887,1.871,1.871,0,0,0,1.855-1.887A1.871,1.871,0,0,0,652.842-258.157Z" transform="translate(-642.078 273.666)" color="currentColor"/>
          </g>
          <path id="Контур_339" data-name="Контур 339" d="M642.757-268.423v-4.3a.7.7,0,0,0-.7-.708,11.189,11.189,0,0,0-1.8.158.7.7,0,0,0-.569.543l-.284,1.277a9.609,9.609,0,0,0-2.13.9l-1.1-.7a.687.687,0,0,0-.78.025,11.544,11.544,0,0,0-2.541,2.585.719.719,0,0,0-.024.793l.692,1.114a10,10,0,0,0-.89,2.168l-1.255.288a.705.705,0,0,0-.535.58,11.984,11.984,0,0,0-.154,1.827,11.983,11.983,0,0,0,.154,1.827.705.705,0,0,0,.535.58l1.255.288a10.018,10.018,0,0,0,.89,2.168l-.692,1.114a.719.719,0,0,0,.024.793,11.518,11.518,0,0,0,2.541,2.584.684.684,0,0,0,.78.026l1.1-.7a9.651,9.651,0,0,0,2.13.9l.284,1.277a.7.7,0,0,0,.569.543,11.188,11.188,0,0,0,1.8.158.7.7,0,0,0,.7-.708v-4.968a.7.7,0,0,0-.7-.707,5.138,5.138,0,0,1-5.088-5.175,5.138,5.138,0,0,1,5.088-5.175,5.139,5.139,0,0,1,5.089,5.175h1.391A6.558,6.558,0,0,0,642.757-268.423Zm-1.392,0a6.561,6.561,0,0,0-5.784,6.553,6.56,6.56,0,0,0,5.784,6.552v3.56c-.136-.011-.275-.025-.419-.043l-.271-1.222a.7.7,0,0,0-.521-.533,8.283,8.283,0,0,1-2.517-1.068.684.684,0,0,0-.74,0l-1.047.673a10.142,10.142,0,0,1-1.577-1.6l.661-1.065a.717.717,0,0,0,0-.752,8.523,8.523,0,0,1-1.05-2.561.7.7,0,0,0-.525-.529l-1.2-.276a9.612,9.612,0,0,1-.071-1.134,9.393,9.393,0,0,1,.072-1.134l1.2-.276a.7.7,0,0,0,.525-.53,8.528,8.528,0,0,1,1.05-2.56.717.717,0,0,0,0-.752l-.661-1.065a10.057,10.057,0,0,1,1.577-1.6l1.047.673a.69.69,0,0,0,.74,0,8.286,8.286,0,0,1,2.517-1.068.7.7,0,0,0,.521-.533l.271-1.222c.144-.018.283-.032.419-.043Z" transform="translate(-630.697 273.666)" fill="currentColor"/>
          <g id="Сгруппировать_47" data-name="Сгруппировать 47" transform="translate(8.284 8.662)">
            <ellipse id="Эллипс_22" data-name="Эллипс 22" cx="3.08" cy="3.132" rx="3.08" ry="3.132" fill="currentColor"/>
          </g>
    </symbol>

    <symbol id="catalog2" width="20.586" height="24" viewBox="0 0 20.586 24">
        <g id="Сгруппировать_35" data-name="Сгруппировать 35" transform="translate(4.052 3.715)">
            <path id="Контур_334" data-name="Контур 334" d="M747.308-358.607h-1.5v-2.257a1.062,1.062,0,0,1,.619-.96,4.85,4.85,0,0,0,2.7-5.456,4.8,4.8,0,0,0-3.664-3.654,4.875,4.875,0,0,0-4.1.968,4.814,4.814,0,0,0-1.787,3.751,4.844,4.844,0,0,0,2.817,4.39,1.067,1.067,0,0,1,.619.96v2.258h-1.5v-1.978a6.353,6.353,0,0,1-3.436-5.63,6.3,6.3,0,0,1,2.342-4.915,6.36,6.36,0,0,1,5.346-1.272,6.321,6.321,0,0,1,4.825,4.811,6.342,6.342,0,0,1-3.289,7.006Z" transform="translate(-738.084 372.543)" color="currentColor"/>
          </g>
          <path id="Контур_335" data-name="Контур 335" d="M747.4-359.093H741.4a.75.75,0,0,0-.75.75v4.022a.75.75,0,0,0,.75.75h1.759v.076a1.237,1.237,0,0,0,1.237,1.237,1.237,1.237,0,0,0,1.237-1.237v-.076H747.4a.75.75,0,0,0,.75-.75v-4.022A.75.75,0,0,0,747.4-359.093Zm-.75,4.022h-4.492v-2.522h4.492Z" transform="translate(-734.032 376.258)" fill="currentColor"/>
          <g id="Сгруппировать_42" data-name="Сгруппировать 42">
            <g id="Сгруппировать_36" data-name="Сгруппировать 36" transform="translate(9.543)">
              <rect id="Прямоугольник_147" data-name="Прямоугольник 147" width="1.5" height="2.379" fill="currentColor"/>
            </g>
            <g id="Сгруппировать_37" data-name="Сгруппировать 37" transform="translate(16.205 2.549)">
              <rect id="Прямоугольник_148" data-name="Прямоугольник 148" width="2.379" height="1.5" transform="translate(0 1.682) rotate(-45)" fill="currentColor"/>
            </g>
            <g id="Сгруппировать_38" data-name="Сгруппировать 38" transform="translate(1.639 2.549)">
              <rect id="Прямоугольник_149" data-name="Прямоугольник 149" width="1.5" height="2.379" transform="translate(0 1.061) rotate(-45.008)" fill="currentColor"/>
            </g>
            <g id="Сгруппировать_41" data-name="Сгруппировать 41" transform="translate(0 9.323)">
              <g id="Сгруппировать_39" data-name="Сгруппировать 39" transform="translate(18.207)">
                <rect id="Прямоугольник_150" data-name="Прямоугольник 150" width="2.379" height="1.5" fill="currentColor"/>
              </g>
              <g id="Сгруппировать_40" data-name="Сгруппировать 40">
                <rect id="Прямоугольник_151" data-name="Прямоугольник 151" width="2.379" height="1.5" fill="currentColor"/>
              </g>
            </g>
          </g>
    </symbol>

    <symbol id="catalog3" width="24" height="24" viewBox="0 0 24 24">
        <path id="Контур_338" data-name="Контур 338" d="M579.421-299.572h-.9l-1.47-8.442-1.5.264,1.423,8.178h-3.356l-2.3-4.264,1.431-3.942-1.427-.527-1.549,4.268a.768.768,0,0,0,.045.629l2.071,3.836h-.8a.753.753,0,0,0-.54.228l-2.466,2.516a.77.77,0,0,0-.22.538v2.516a.764.764,0,0,0,.761.766h10.792a.764.764,0,0,0,.76-.766v-5.032A.764.764,0,0,0,579.421-299.572Zm-.761,5.032h-9.271v-1.435l2.023-2.065h7.248Z" transform="translate(-556.181 317.008)" fill="currentColor"/>
        <path id="Контур_336" data-name="Контур 336" d="M579.421-317.008H565.9a.763.763,0,0,0-.76.766v.584H562.31a.763.763,0,0,0-.76.766v5.2a.763.763,0,0,0,.76.766h2.833v.583a.763.763,0,0,0,.76.766h13.518a.764.764,0,0,0,.76-.766v-7.9A.764.764,0,0,0,579.421-317.008Zm-16.351,6.549v-3.667h2.073v3.667Zm15.59,1.349h-12v-6.366h12Z" transform="translate(-556.181 317.008)" color="currentColor"/>
        <path id="Контур_337" data-name="Контур 337" d="M561.659-312.594v-1.532h-1.6a.764.764,0,0,0-.76.766v.3h-3.114v1.532h3.114v.3a.764.764,0,0,0,.76.766h1.6v-1.532h-.843v-.6Z" transform="translate(-556.181 317.008)" fill="currentColor"/>
    </symbol>

    <symbol id="catalog4" width="24" height="24" viewBox="0 0 24 24">
        <g id="Сгруппировать_49" data-name="Сгруппировать 49" transform="translate(3.893 3.894)">
            <path id="Контур_344" data-name="Контур 344" d="M722.485-271.377H707.772a.75.75,0,0,1-.75-.75V-286.84a.75.75,0,0,1,.75-.75h14.713a.75.75,0,0,1,.75.75v14.713A.75.75,0,0,1,722.485-271.377Zm-13.963-1.5h13.213V-286.09H708.522Z" transform="translate(-707.022 287.59)" fill="currentColor"/>
          </g>
          <g id="Сгруппировать_53" data-name="Сгруппировать 53" transform="translate(5.824)">
            <g id="Сгруппировать_50" data-name="Сгруппировать 50">
              <circle id="Эллипс_23" data-name="Эллипс 23" cx="1.425" cy="1.425" r="1.425" fill="currentColor"/>
            </g>
            <g id="Сгруппировать_51" data-name="Сгруппировать 51" transform="translate(9.502)">
              <circle id="Эллипс_24" data-name="Эллипс 24" cx="1.425" cy="1.425" r="1.425" fill="currentColor"/>
            </g>
            <g id="Сгруппировать_52" data-name="Сгруппировать 52" transform="translate(4.751)">
              <circle id="Эллипс_25" data-name="Эллипс 25" cx="1.425" cy="1.425" r="1.425" fill="currentColor"/>
            </g>
          </g>
          <g id="Сгруппировать_57" data-name="Сгруппировать 57" transform="translate(5.824)">
            <g id="Сгруппировать_54" data-name="Сгруппировать 54">
              <circle id="Эллипс_26" data-name="Эллипс 26" cx="1.425" cy="1.425" r="1.425" fill="currentColor"/>
            </g>
            <g id="Сгруппировать_55" data-name="Сгруппировать 55" transform="translate(9.502)">
              <circle id="Эллипс_27" data-name="Эллипс 27" cx="1.425" cy="1.425" r="1.425" fill="currentColor"/>
            </g>
            <g id="Сгруппировать_56" data-name="Сгруппировать 56" transform="translate(4.751)">
              <circle id="Эллипс_28" data-name="Эллипс 28" cx="1.425" cy="1.425" r="1.425" fill="currentColor"/>
            </g>
          </g>
          <g id="Сгруппировать_61" data-name="Сгруппировать 61" transform="translate(5.824 21.149)">
            <g id="Сгруппировать_58" data-name="Сгруппировать 58">
              <circle id="Эллипс_29" data-name="Эллипс 29" cx="1.425" cy="1.425" r="1.425" fill="currentColor"/>
            </g>
            <g id="Сгруппировать_59" data-name="Сгруппировать 59" transform="translate(9.502)">
              <circle id="Эллипс_30" data-name="Эллипс 30" cx="1.425" cy="1.425" r="1.425" fill="currentColor"/>
            </g>
            <g id="Сгруппировать_60" data-name="Сгруппировать 60" transform="translate(4.751)">
              <circle id="Эллипс_31" data-name="Эллипс 31" cx="1.425" cy="1.425" r="1.425" fill="currentColor"/>
            </g>
          </g>
          <g id="Сгруппировать_65" data-name="Сгруппировать 65" transform="translate(21.149 5.824)">
            <g id="Сгруппировать_62" data-name="Сгруппировать 62">
              <circle id="Эллипс_32" data-name="Эллипс 32" cx="1.425" cy="1.425" r="1.425" fill="currentColor"/>
            </g>
            <g id="Сгруппировать_63" data-name="Сгруппировать 63" transform="translate(0 9.502)">
              <circle id="Эллипс_33" data-name="Эллипс 33" cx="1.425" cy="1.425" r="1.425" fill="currentColor"/>
            </g>
            <g id="Сгруппировать_64" data-name="Сгруппировать 64" transform="translate(0 4.751)">
              <circle id="Эллипс_34" data-name="Эллипс 34" cx="1.425" cy="1.425" r="1.425" fill="currentColor"/>
            </g>
          </g>
          <g id="Сгруппировать_69" data-name="Сгруппировать 69" transform="translate(0 5.824)">
            <g id="Сгруппировать_66" data-name="Сгруппировать 66">
              <circle id="Эллипс_35" data-name="Эллипс 35" cx="1.425" cy="1.425" r="1.425" fill="currentColor"/>
            </g>
            <g id="Сгруппировать_67" data-name="Сгруппировать 67" transform="translate(0 9.502)">
              <circle id="Эллипс_36" data-name="Эллипс 36" cx="1.425" cy="1.425" r="1.425" fill="currentColor"/>
            </g>
            <g id="Сгруппировать_68" data-name="Сгруппировать 68" transform="translate(0 4.751)">
              <circle id="Эллипс_37" data-name="Эллипс 37" cx="1.425" cy="1.425" r="1.425" fill="currentColor"/>
            </g>
          </g>
          <g id="Сгруппировать_70" data-name="Сгруппировать 70" transform="translate(6.499 6.499)">
            <path id="Контур_345" data-name="Контур 345" d="M719.88-273.983h-9.5a.75.75,0,0,1-.75-.75v-4.751a.747.747,0,0,1,.22-.53l4.751-4.751a.747.747,0,0,1,.53-.22h4.751a.75.75,0,0,1,.75.75v9.5A.75.75,0,0,1,719.88-273.983Zm-8.752-1.5h8v-8h-3.691l-4.311,4.312Z" transform="translate(-709.628 284.985)" color="currentColor"/>
          </g>
    </symbol>

    <symbol id="catalog5" width="12.68" height="24" viewBox="0 0 12.68 24">
        <g id="Сгруппировать_72" data-name="Сгруппировать 72" transform="translate(2.836 10.172)">
            <path id="Контур_346" data-name="Контур 346" d="M787.079-303.495v2.745H783.1v-2.745h3.976m1.146-1.516h-6.268a.37.37,0,0,0-.37.37v5.037a.37.37,0,0,0,.37.369h6.268a.369.369,0,0,0,.369-.369v-5.037a.37.37,0,0,0-.369-.37Z" transform="translate(-781.587 305.011)" color="currentColor"/>
          </g>
          <path id="Контур_347" data-name="Контур 347" d="M789.915-315.183v6.759h-5a.962.962,0,0,0-.946-.833.962.962,0,0,0-.946.833h-.861a.962.962,0,0,0-.946-.833.964.964,0,0,0-.947.833h-.764a.758.758,0,0,0-.758.758v10.143a6.347,6.347,0,0,0,6.339,6.34,6.347,6.347,0,0,0,6.341-6.34v-17.66Zm0,17.66a4.83,4.83,0,0,1-4.825,4.824,4.829,4.829,0,0,1-4.823-4.824v-9.385h9.648Z" transform="translate(-778.751 315.183)" fill="currentColor"/>
          <g id="Сгруппировать_75" data-name="Сгруппировать 75" transform="translate(2.836 17.497)">
            <g id="Сгруппировать_73" data-name="Сгруппировать 73">
              <rect id="Прямоугольник_152" data-name="Прямоугольник 152" width="2.844" height="1.516" fill="currentColor"/>
            </g>
            <g id="Сгруппировать_74" data-name="Сгруппировать 74" transform="translate(4.164)">
              <rect id="Прямоугольник_153" data-name="Прямоугольник 153" width="2.844" height="1.516" fill="currentColor"/>
            </g>
          </g>
    </symbol>

    <symbol id="logo" viewBox="0 0 36.324 40" width="36.324" height="40">
        <defs>
            <clipPath id="clip-path">
            <path id="SVGID" d="M168.622,499.508H166.59l1.945-2.456v-1.075h-4.186v1.354h1.9l-1.945,2.456v1.074h4.317Z" transform="translate(-164.305 -495.978)" />
            </clipPath>
            <clipPath id="clip-path-2">
            <path id="SVGID-2" data-name="SVGID" d="M208.626,499.034h2.006v-1.256h-2.006v-.53h2.224v-1.27h-3.968v4.884h4.012v-1.284h-2.268Z" transform="translate(-206.882 -495.978)" />
            </clipPath>
            <clipPath id="clip-path-3">
            <path id="SVGID-3" data-name="SVGID" d="M247.858,495.978v4.884h3.75v-1.354H249.6v-3.53Z" transform="translate(-247.858 -495.978)" />
            </clipPath>
            <clipPath id="clip-path-4">
            <path id="SVGID-4" data-name="SVGID" d="M292,500.862v-4.884h-1.744l-1.439,1.989-1.439-1.989h-1.744v4.884h1.744v-2.379l1.361,1.828h.157l1.361-1.828v2.379Z" transform="translate(-285.633 -495.978)" />
            </clipPath>
            <clipPath id="clip-path-5">
            <path id="SVGID-5" data-name="SVGID" d="M343.419,500.234h1.762l.209.628h1.875l-1.945-4.884H343.28l-1.945,4.884h1.875Zm.881-2.616.506,1.5h-1.012Z" transform="translate(-341.335 -495.978)" />
            </clipPath>
            <clipPath id="clip-path-6">
            <path id="SVGID-6" data-name="SVGID" d="M397.15,498.211l-1.919-2.233h-1.4v4.884h1.744v-2.233l1.919,2.233h1.4v-4.884H397.15Z" transform="translate(-393.836 -495.978)" />
            </clipPath>
            <clipPath id="clip-path-7">
            <path id="SVGID-7" data-name="SVGID" d="M164.3,542.511h1.052v3.1h.343v-3.1h1.052v-.323H164.3Z" transform="translate(-164.305 -542.188)" />
            </clipPath>
            <clipPath id="clip-path-8">
            <path id="SVGID-8" data-name="SVGID" d="M189.8,544.048h1.517v-.323H189.8v-1.214h1.64v-.323h-1.982v3.426h2.007v-.323H189.8Z" transform="translate(-189.455 -542.188)" />
            </clipPath>
            <clipPath id="clip-path-9">
            <path id="SVGID-9" data-name="SVGID" d="M210.983,542.27a1.787,1.787,0,0,0,2.161,2.8,1.569,1.569,0,0,0,.609-.617l-.3-.171a1.215,1.215,0,0,1-.48.5,1.361,1.361,0,0,1-.7.186,1.439,1.439,0,1,1,0-2.878,1.362,1.362,0,0,1,.7.186,1.218,1.218,0,0,1,.48.5l.3-.176a1.593,1.593,0,0,0-.612-.614,1.717,1.717,0,0,0-.871-.228,1.735,1.735,0,0,0-1.287.514" transform="translate(-210.474 -541.756)" />
            </clipPath>
            <clipPath id="clip-path-10">
            <path id="SVGID-10" data-name="SVGID" d="M244.473,542.188v1.5h-1.86v-1.5h-.343v3.426h.343v-1.6h1.86v1.6h.343v-3.426Z" transform="translate(-242.271 -542.188)" />
            </clipPath>
            <clipPath id="clip-path-11">
            <path id="SVGID-11" data-name="SVGID" d="M272.5,542.188v2.79l-1.909-2.79H270.3v3.426h.343v-2.79l1.909,2.79h.294v-3.426Z" transform="translate(-270.296 -542.188)" />
            </clipPath>
            <clipPath id="clip-path-12">
            <path id="SVGID-12" data-name="SVGID" d="M297.637,544.548a1.472,1.472,0,0,1,0-2.041,1.448,1.448,0,0,1,2.036,0,1.472,1.472,0,0,1,0,2.041,1.448,1.448,0,0,1-2.036,0m-.24-2.276a1.79,1.79,0,1,0,1.258-.516,1.713,1.713,0,0,0-1.258.516" transform="translate(-296.883 -541.756)"/>
            </clipPath>
            <clipPath id="clip-path-13">
            <path id="SVGID-13" data-name="SVGID" d="M330.8,542.188v3.426h1.909v-.323h-1.566v-3.1Z" transform="translate(-330.8 -542.188)" />
            </clipPath>
            <clipPath id="clip-path-14">
            <path id="SVGID-14" data-name="SVGID" d="M349.518,544.548a1.472,1.472,0,0,1,0-2.041,1.447,1.447,0,0,1,2.036,0,1.472,1.472,0,0,1,0,2.041,1.448,1.448,0,0,1-2.036,0m-.24-2.276a1.79,1.79,0,1,0,1.258-.516,1.713,1.713,0,0,0-1.258.516" transform="translate(-348.764 -541.756)" />
            </clipPath>
            <clipPath id="clip-path-15">
            <path id="SVGID-15" data-name="SVGID" d="M381.754,542.27a1.772,1.772,0,0,0,1.287,3.029,1.682,1.682,0,0,0,1.219-.438,1.432,1.432,0,0,0,.455-1.074v-.176H383v.323h1.361a1.088,1.088,0,0,1-.4.742,1.46,1.46,0,0,1-2.379-1.148,1.406,1.406,0,0,1,1.454-1.439,1.362,1.362,0,0,1,.7.186,1.217,1.217,0,0,1,.48.5l.3-.176a1.62,1.62,0,0,0-.612-.612,1.707,1.707,0,0,0-.871-.23,1.735,1.735,0,0,0-1.287.514" transform="translate(-381.245 -541.756)" />
            </clipPath>
            <clipPath id="clip-path-16">
            <path id="SVGID-16" data-name="SVGID" d="M412.74,542.188l-1.018,1.679-1.023-1.679h-.387l1.233,2.012v1.414h.342v-1.4l1.238-2.021Z" transform="translate(-410.312 -542.188)" />
            </clipPath>
            <clipPath id="clip-path-17">
            <path id="SVGID-17" data-name="SVGID" d="M290.949,357.453l-3.178,4.541h19.506v-4.541Z" transform="translate(-287.771 -357.453)" />
            </clipPath>
            <clipPath id="clip-path-18">
            <path id="SVGID-18" data-name="SVGID" d="M349.29,274.121l-3.179,4.54H357.67v-4.54Z" transform="translate(-346.111 -274.121)" />
            </clipPath>
            <clipPath id="clip-path-19">
            <path id="SVGID-19" data-name="SVGID" d="M341.971,274.121l-3.179,4.54h.665l3.18-4.54Z" transform="translate(-338.792 -274.121)" />
            </clipPath>
            <clipPath id="clip-path-20">
            <path id="SVGID-20" data-name="SVGID" d="M334.649,274.121l-3.178,4.54h.664l3.179-4.54Z" transform="translate(-331.471 -274.121)" />
            </clipPath>
            <clipPath id="clip-path-21">
            <path id="SVGID-21" data-name="SVGID" d="M327.324,274.121l-3.179,4.54h.665l3.179-4.54Z" transform="translate(-324.145 -274.121)" />
            </clipPath>
            <clipPath id="clip-path-22">
            <path id="SVGID-22" data-name="SVGID" d="M167.512,274.121l3.179,4.54h12.28L172.162,294.1h5.543l13.989-19.978Z" transform="translate(-167.512 -274.121)" />
            </clipPath>
            <clipPath id="clip-path-23">
            <path id="SVGID-23" data-name="SVGID" d="M167.484,440.787l-3.179,4.54h36.324v-4.54Z" transform="translate(-164.305 -440.787)" />
            </clipPath>
            <clipPath id="clip-path-24">
            <path id="SVGID-24" data-name="SVGID" d="M197.827,422.787l-.382.545h5.543l.382-.545Z" transform="translate(-197.445 -422.787)" />
            </clipPath>
            <clipPath id="clip-path-25">
            <path id="SVGID-25" data-name="SVGID" d="M193.625,428.786l-.381.545h5.543l.381-.545Z" transform="translate(-193.244 -428.786)" />
            </clipPath>
            <clipPath id="clip-path-26">
            <path id="SVGID-26" data-name="SVGID" d="M189.426,434.787l-.381.545h5.543l.381-.545Z" transform="translate(-189.045 -434.787)" />
            </clipPath>
        </defs>
        <g id="Logo" transform="translate(-164.305 -274.121)">
            <g id="Сгруппировать_81" data-name="Сгруппировать 81" transform="translate(164.305 304.342)">
            <g id="Сгруппировать_80" data-name="Сгруппировать 80" transform="translate(0 0)" clip-path="url(#clip-path)">
                <rect id="Прямоугольник_157" data-name="Прямоугольник 157" width="4.317" height="4.884" transform="translate(0 0)" />
            </g>
            </g>
            <g id="Сгруппировать_83" data-name="Сгруппировать 83" transform="translate(170.105 304.342)">
            <g id="Сгруппировать_82" data-name="Сгруппировать 82" transform="translate(0 0)" clip-path="url(#clip-path-2)">
                <rect id="Прямоугольник_158" data-name="Прямоугольник 158" width="4.012" height="4.884" transform="translate(0 0)" />
            </g>
            </g>
            <g id="Сгруппировать_85" data-name="Сгруппировать 85" transform="translate(175.686 304.342)">
            <g id="Сгруппировать_84" data-name="Сгруппировать 84" transform="translate(0 0)" clip-path="url(#clip-path-3)">
                <rect id="Прямоугольник_159" data-name="Прямоугольник 159" width="3.75" height="4.884" transform="translate(0 0)" />
            </g>
            </g>
            <g id="Сгруппировать_87" data-name="Сгруппировать 87" transform="translate(180.832 304.342)">
            <g id="Сгруппировать_86" data-name="Сгруппировать 86" transform="translate(0 0)" clip-path="url(#clip-path-4)">
                <rect id="Прямоугольник_160" data-name="Прямоугольник 160" width="6.367" height="4.884" transform="translate(0 0)" />
            </g>
            </g>
            <g id="Сгруппировать_89" data-name="Сгруппировать 89" transform="translate(188.42 304.342)">
            <g id="Сгруппировать_88" data-name="Сгруппировать 88" transform="translate(0 0)" clip-path="url(#clip-path-5)">
                <rect id="Прямоугольник_161" data-name="Прямоугольник 161" width="5.931" height="4.884" transform="translate(0 0)" />
            </g>
            </g>
            <g id="Сгруппировать_91" data-name="Сгруппировать 91" transform="translate(195.571 304.342)">
            <g id="Сгруппировать_90" data-name="Сгруппировать 90" transform="translate(0 0)" clip-path="url(#clip-path-6)">
                <rect id="Прямоугольник_162" data-name="Прямоугольник 162" width="5.058" height="4.884" transform="translate(0 0)" />
            </g>
            </g>
            <g id="Сгруппировать_93" data-name="Сгруппировать 93" transform="translate(164.305 310.636)">
            <g id="Сгруппировать_92" data-name="Сгруппировать 92" transform="translate(0)" clip-path="url(#clip-path-7)">
                <rect id="Прямоугольник_163" data-name="Прямоугольник 163" width="2.447" height="3.426" transform="translate(0)" />
            </g>
            </g>
            <g id="Сгруппировать_95" data-name="Сгруппировать 95" transform="translate(167.731 310.636)">
            <g id="Сгруппировать_94" data-name="Сгруппировать 94" transform="translate(0)" clip-path="url(#clip-path-8)">
                <rect id="Прямоугольник_164" data-name="Прямоугольник 164" width="2.007" height="3.426" transform="translate(0)" />
            </g>
            </g>
            <g id="Сгруппировать_97" data-name="Сгруппировать 97" transform="translate(170.594 310.577)">
            <g id="Сгруппировать_96" data-name="Сгруппировать 96" transform="translate(0 0)" clip-path="url(#clip-path-9)">
                <rect id="Прямоугольник_165" data-name="Прямоугольник 165" width="3.279" height="3.544" transform="translate(0 0)" />
            </g>
            </g>
            <g id="Сгруппировать_99" data-name="Сгруппировать 99" transform="translate(174.925 310.636)">
            <g id="Сгруппировать_98" data-name="Сгруппировать 98" transform="translate(0)" clip-path="url(#clip-path-10)">
                <rect id="Прямоугольник_166" data-name="Прямоугольник 166" width="2.545" height="3.426" />
            </g>
            </g>
            <g id="Сгруппировать_101" data-name="Сгруппировать 101" transform="translate(178.743 310.636)">
            <g id="Сгруппировать_100" data-name="Сгруппировать 100" transform="translate(0)" clip-path="url(#clip-path-11)">
                <rect id="Прямоугольник_167" data-name="Прямоугольник 167" width="2.545" height="3.426" />
            </g>
            </g>
            <g id="Сгруппировать_103" data-name="Сгруппировать 103" transform="translate(182.364 310.577)">
            <g id="Сгруппировать_102" data-name="Сгруппировать 102" transform="translate(0 0)" clip-path="url(#clip-path-12)">
                <rect id="Прямоугольник_168" data-name="Прямоугольник 168" width="3.544" height="3.544" transform="translate(0 0)" />
            </g>
            </g>
            <g id="Сгруппировать_105" data-name="Сгруппировать 105" transform="translate(186.984 310.636)">
            <g id="Сгруппировать_104" data-name="Сгруппировать 104" transform="translate(0)" clip-path="url(#clip-path-13)">
                <rect id="Прямоугольник_169" data-name="Прямоугольник 169" width="1.909" height="3.426" transform="translate(0)" />
            </g>
            </g>
            <g id="Сгруппировать_107" data-name="Сгруппировать 107" transform="translate(189.431 310.577)">
            <g id="Сгруппировать_106" data-name="Сгруппировать 106" transform="translate(0 0)" clip-path="url(#clip-path-14)">
                <rect id="Прямоугольник_170" data-name="Прямоугольник 170" width="3.544" height="3.544" transform="translate(0 0)" />
            </g>
            </g>
            <g id="Сгруппировать_109" data-name="Сгруппировать 109" transform="translate(193.856 310.577)">
            <g id="Сгруппировать_108" data-name="Сгруппировать 108" transform="translate(0 0)" clip-path="url(#clip-path-15)">
                <rect id="Прямоугольник_171" data-name="Прямоугольник 171" width="3.47" height="3.544" transform="translate(0 0)" />
            </g>
            </g>
            <g id="Сгруппировать_111" data-name="Сгруппировать 111" transform="translate(197.815 310.636)">
            <g id="Сгруппировать_110" data-name="Сгруппировать 110" transform="translate(0)" clip-path="url(#clip-path-16)">
                <rect id="Прямоугольник_172" data-name="Прямоугольник 172" width="2.814" height="3.426" />
            </g>
            </g>
            <g id="Сгруппировать_113" data-name="Сгруппировать 113" transform="translate(181.123 285.472)">
            <g id="Сгруппировать_112" data-name="Сгруппировать 112" transform="translate(0 0)" clip-path="url(#clip-path-17)">
                <rect id="Прямоугольник_173" data-name="Прямоугольник 173" width="19.506" height="4.541" />
            </g>
            </g>
            <g id="Сгруппировать_115" data-name="Сгруппировать 115" transform="translate(189.07 274.121)">
            <g id="Сгруппировать_114" data-name="Сгруппировать 114" transform="translate(0)" clip-path="url(#clip-path-18)">
                <rect id="Прямоугольник_174" data-name="Прямоугольник 174" width="11.559" height="4.541" transform="translate(0 0)" />
            </g>
            </g>
            <g id="Сгруппировать_117" data-name="Сгруппировать 117" transform="translate(188.073 274.121)">
            <g id="Сгруппировать_116" data-name="Сгруппировать 116" transform="translate(0)" clip-path="url(#clip-path-19)">
                <rect id="Прямоугольник_175" data-name="Прямоугольник 175" width="3.845" height="4.541" transform="translate(0 0)" />
            </g>
            </g>
            <g id="Сгруппировать_119" data-name="Сгруппировать 119" transform="translate(187.076 274.121)">
            <g id="Сгруппировать_118" data-name="Сгруппировать 118" transform="translate(0)" clip-path="url(#clip-path-20)">
                <rect id="Прямоугольник_176" data-name="Прямоугольник 176" width="3.843" height="4.541" transform="translate(0 0)" />
            </g>
            </g>
            <g id="Сгруппировать_121" data-name="Сгруппировать 121" transform="translate(186.078 274.121)">
            <g id="Сгруппировать_120" data-name="Сгруппировать 120" clip-path="url(#clip-path-21)">
                <rect id="Прямоугольник_177" data-name="Прямоугольник 177" width="3.844" height="4.541" transform="translate(0 0)" />
            </g>
            </g>
            <g id="Сгруппировать_123" data-name="Сгруппировать 123" transform="translate(164.742 274.121)">
            <g id="Сгруппировать_122" data-name="Сгруппировать 122" transform="translate(0)" clip-path="url(#clip-path-22)">
                <rect id="Прямоугольник_178" data-name="Прямоугольник 178" width="24.182" height="19.978" transform="translate(0 0)" />
            </g>
            </g>
            <g id="Сгруппировать_125" data-name="Сгруппировать 125" transform="translate(164.305 296.824)">
            <g id="Сгруппировать_124" data-name="Сгруппировать 124" transform="translate(0 0)" clip-path="url(#clip-path-23)">
                <rect id="Прямоугольник_179" data-name="Прямоугольник 179" width="36.324" height="4.541" transform="translate(0)" />
            </g>
            </g>
            <g id="Сгруппировать_127" data-name="Сгруппировать 127" transform="translate(168.819 294.372)">
            <g id="Сгруппировать_126" data-name="Сгруппировать 126" transform="translate(0 0)" clip-path="url(#clip-path-24)">
                <rect id="Прямоугольник_180" data-name="Прямоугольник 180" width="5.925" height="0.545" transform="translate(0)" />
            </g>
            </g>
            <g id="Сгруппировать_129" data-name="Сгруппировать 129" transform="translate(168.247 295.189)">
            <g id="Сгруппировать_128" data-name="Сгруппировать 128" transform="translate(0 0)" clip-path="url(#clip-path-25)">
                <rect id="Прямоугольник_181" data-name="Прямоугольник 181" width="5.925" height="0.545" transform="translate(0 0)" />
            </g>
            </g>
            <g id="Сгруппировать_131" data-name="Сгруппировать 131" transform="translate(167.675 296.006)">
            <g id="Сгруппировать_130" data-name="Сгруппировать 130" transform="translate(0 0)" clip-path="url(#clip-path-26)">
                <rect id="Прямоугольник_182" data-name="Прямоугольник 182" width="5.924" height="0.545" transform="translate(0)" />
            </g>
            </g>
        </g>
          
    </symbol>
</svg>