<svg xmlns="http://www.w3.org/2000/svg" xmlns:xlink="http://www.w3.org/1999/xlink"><symbol id="cart" viewBox="0 0 24 24"><g transform="translate(-148 -530)"><path d="M169.342 547.855h-12.591l-.394-1.486h7.923a4.873 4.873 0 004.523-3.079l3.2-7.9h-18.561l-.385-1.45a5.264 5.264 0 00-5.06-3.937v1.515a3.766 3.766 0 013.619 2.816l3.988 15.038h13.738zm.427-10.951l-2.35 5.81a3.385 3.385 0 01-3.142 2.14h-8.325l-2.108-7.95z" data-name="&#x41A;&#x43E;&#x43D;&#x442;&#x443;&#x440; 33"/><ellipse cx="1.493" cy="1.516" data-name="&#x42D;&#x43B;&#x43B;&#x438;&#x43F;&#x441; 4" rx="1.493" ry="1.516" transform="translate(166.36 550.968)"/><ellipse cx="1.493" cy="1.516" data-name="&#x42D;&#x43B;&#x43B;&#x438;&#x43F;&#x441; 5" rx="1.493" ry="1.516" transform="translate(156.185 550.968)"/></g></symbol><symbol id="catalog" viewBox="0 0 24 18"><path d="M7.278 0H24v1.5H7.278z" data-name="&#x41F;&#x440;&#x44F;&#x43C;&#x43E;&#x443;&#x433;&#x43E;&#x43B;&#x44C;&#x43D;&#x438;&#x43A; 31"/><path d="M7.278 8.249H24v1.5H7.278z" data-name="&#x41F;&#x440;&#x44F;&#x43C;&#x43E;&#x443;&#x433;&#x43E;&#x43B;&#x44C;&#x43D;&#x438;&#x43A; 32"/><path d="M7.278 16.5H24V18H7.278z" data-name="&#x41F;&#x440;&#x44F;&#x43C;&#x43E;&#x443;&#x433;&#x43E;&#x43B;&#x44C;&#x43D;&#x438;&#x43A; 33"/><path d="M0 0h4.911v1.5H0z" data-name="&#x41F;&#x440;&#x44F;&#x43C;&#x43E;&#x443;&#x433;&#x43E;&#x43B;&#x44C;&#x43D;&#x438;&#x43A; 35"/><path d="M0 8.249h4.911v1.5H0z" data-name="&#x41F;&#x440;&#x44F;&#x43C;&#x43E;&#x443;&#x433;&#x43E;&#x43B;&#x44C;&#x43D;&#x438;&#x43A; 36"/><path d="M0 16.5h4.911V18H0z" data-name="&#x41F;&#x440;&#x44F;&#x43C;&#x43E;&#x443;&#x433;&#x43E;&#x43B;&#x44C;&#x43D;&#x438;&#x43A; 37"/></symbol><symbol id="catalog1" viewBox="0 0 24 24"><g data-name="&#x421;&#x433;&#x440;&#x443;&#x43F;&#x43F;&#x438;&#x440;&#x43E;&#x432;&#x430;&#x442;&#x44C; 46"><path d="M15.737 4.687l1.045-1.062a1.825 1.825 0 00.725.149 1.871 1.871 0 001.855-1.887A1.872 1.872 0 0017.507 0a1.872 1.872 0 00-1.856 1.887 1.916 1.916 0 00.147.737l-.841.856h-3.576v1.415h3.864a.688.688 0 00.492-.208z" data-name="&#x41A;&#x43E;&#x43D;&#x442;&#x443;&#x440; 340"/><path d="M16.02 8.197v1.415h3.863a.687.687 0 00.492-.207l1.045-1.063a1.829 1.829 0 00.725.15A1.871 1.871 0 0024 6.605a1.871 1.871 0 00-1.855-1.887 1.871 1.871 0 00-1.855 1.887 1.9 1.9 0 00.147.736l-.842.856z" data-name="&#x41A;&#x43E;&#x43D;&#x442;&#x443;&#x440; 341"/><path d="M17.503 20.226a1.826 1.826 0 00-.725.15l-1.045-1.063a.691.691 0 00-.492-.207h-3.864v1.415h3.576l.841.856a1.914 1.914 0 00-.147.736A1.871 1.871 0 0017.503 24a1.871 1.871 0 001.855-1.887 1.872 1.872 0 00-1.855-1.887z" data-name="&#x41A;&#x43E;&#x43D;&#x442;&#x443;&#x440; 342"/><path d="M22.145 15.509a1.829 1.829 0 00-.725.15l-1.045-1.063a.687.687 0 00-.492-.207H16.02v1.415h3.575l.842.855a1.9 1.9 0 00-.147.737 1.871 1.871 0 001.855 1.887A1.871 1.871 0 0024 17.396a1.871 1.871 0 00-1.855-1.887z" data-name="&#x41A;&#x43E;&#x43D;&#x442;&#x443;&#x440; 343"/></g><path d="M12.06 5.243v-4.3a.7.7 0 00-.7-.708 11.189 11.189 0 00-1.8.158.7.7 0 00-.569.543l-.284 1.277a9.609 9.609 0 00-2.13.9l-1.1-.7a.687.687 0 00-.78.025 11.544 11.544 0 00-2.541 2.585.719.719 0 00-.024.793l.692 1.114a10 10 0 00-.89 2.168l-1.255.288a.705.705 0 00-.535.58 11.984 11.984 0 00-.154 1.827 11.983 11.983 0 00.154 1.827.705.705 0 00.535.58l1.255.288a10.018 10.018 0 00.89 2.168l-.692 1.114a.719.719 0 00.024.793 11.518 11.518 0 002.541 2.584.684.684 0 00.78.026l1.1-.7a9.651 9.651 0 002.13.9l.284 1.277a.7.7 0 00.569.543 11.188 11.188 0 001.8.158.7.7 0 00.7-.708v-4.968a.7.7 0 00-.7-.707 5.138 5.138 0 01-5.088-5.175 5.138 5.138 0 015.088-5.175 5.139 5.139 0 015.089 5.175h1.391a6.558 6.558 0 00-5.78-6.55zm-1.392 0a6.561 6.561 0 00-5.784 6.553 6.56 6.56 0 005.784 6.552v3.56a9.62 9.62 0 01-.419-.043l-.271-1.222a.7.7 0 00-.521-.533 8.283 8.283 0 01-2.517-1.068.684.684 0 00-.74 0l-1.047.673a10.142 10.142 0 01-1.577-1.6l.661-1.065a.717.717 0 000-.752 8.523 8.523 0 01-1.05-2.561.7.7 0 00-.525-.529l-1.2-.276a9.612 9.612 0 01-.071-1.134 9.393 9.393 0 01.072-1.134l1.2-.276a.7.7 0 00.525-.53 8.528 8.528 0 011.05-2.56.717.717 0 000-.752l-.661-1.065a10.057 10.057 0 011.577-1.6l1.047.673a.69.69 0 00.74 0 8.286 8.286 0 012.517-1.068.7.7 0 00.521-.533l.271-1.222a9.62 9.62 0 01.419-.043z" data-name="&#x41A;&#x43E;&#x43D;&#x442;&#x443;&#x440; 339"/><g data-name="&#x421;&#x433;&#x440;&#x443;&#x43F;&#x43F;&#x438;&#x440;&#x43E;&#x432;&#x430;&#x442;&#x44C; 47"><ellipse cx="3.08" cy="3.132" data-name="&#x42D;&#x43B;&#x43B;&#x438;&#x43F;&#x441; 22" rx="3.08" ry="3.132" transform="translate(8.284 8.662)"/></g></symbol><symbol id="catalog2" viewBox="0 0 20.586 24"><g data-name="&#x421;&#x433;&#x440;&#x443;&#x43F;&#x43F;&#x438;&#x440;&#x43E;&#x432;&#x430;&#x442;&#x44C; 35"><path d="M13.276 17.651h-1.5v-2.257a1.062 1.062 0 01.619-.96 4.85 4.85 0 002.7-5.456 4.8 4.8 0 00-3.664-3.654 4.875 4.875 0 00-4.1.968 4.814 4.814 0 00-1.787 3.751 4.844 4.844 0 002.817 4.39 1.067 1.067 0 01.619.96v2.258h-1.5v-1.978a6.353 6.353 0 01-3.436-5.63 6.3 6.3 0 012.342-4.915 6.36 6.36 0 015.346-1.272 6.321 6.321 0 014.825 4.811 6.342 6.342 0 01-3.289 7.006z" data-name="&#x41A;&#x43E;&#x43D;&#x442;&#x443;&#x440; 334"/></g><path d="M13.368 17.165h-6a.75.75 0 00-.75.75v4.022a.75.75 0 00.75.75h1.759v.076A1.237 1.237 0 0010.364 24a1.237 1.237 0 001.237-1.237v-.076h1.767a.75.75 0 00.75-.75v-4.022a.75.75 0 00-.75-.75zm-.75 4.022H8.126v-2.522h4.492z" data-name="&#x41A;&#x43E;&#x43D;&#x442;&#x443;&#x440; 335"/><g data-name="&#x421;&#x433;&#x440;&#x443;&#x43F;&#x43F;&#x438;&#x440;&#x43E;&#x432;&#x430;&#x442;&#x44C; 42"><g data-name="&#x421;&#x433;&#x440;&#x443;&#x43F;&#x43F;&#x438;&#x440;&#x43E;&#x432;&#x430;&#x442;&#x44C; 36"><path d="M9.543 0h1.5v2.379h-1.5z" data-name="&#x41F;&#x440;&#x44F;&#x43C;&#x43E;&#x443;&#x433;&#x43E;&#x43B;&#x44C;&#x43D;&#x438;&#x43A; 147"/></g><g data-name="&#x421;&#x433;&#x440;&#x443;&#x43F;&#x43F;&#x438;&#x440;&#x43E;&#x432;&#x430;&#x442;&#x44C; 37"><path d="M16.205 4.231l1.682-1.682 1.06 1.06-1.681 1.683z" data-name="&#x41F;&#x440;&#x44F;&#x43C;&#x43E;&#x443;&#x433;&#x43E;&#x43B;&#x44C;&#x43D;&#x438;&#x43A; 148"/></g><g data-name="&#x421;&#x433;&#x440;&#x443;&#x43F;&#x43F;&#x438;&#x440;&#x43E;&#x432;&#x430;&#x442;&#x44C; 38"><path d="M1.639 3.61l1.06-1.06L4.383 4.23l-1.06 1.061z" data-name="&#x41F;&#x440;&#x44F;&#x43C;&#x43E;&#x443;&#x433;&#x43E;&#x43B;&#x44C;&#x43D;&#x438;&#x43A; 149"/></g><g data-name="&#x421;&#x433;&#x440;&#x443;&#x43F;&#x43F;&#x438;&#x440;&#x43E;&#x432;&#x430;&#x442;&#x44C; 41"><g data-name="&#x421;&#x433;&#x440;&#x443;&#x43F;&#x43F;&#x438;&#x440;&#x43E;&#x432;&#x430;&#x442;&#x44C; 39"><path d="M18.207 9.323h2.379v1.5h-2.379z" data-name="&#x41F;&#x440;&#x44F;&#x43C;&#x43E;&#x443;&#x433;&#x43E;&#x43B;&#x44C;&#x43D;&#x438;&#x43A; 150"/></g><g data-name="&#x421;&#x433;&#x440;&#x443;&#x43F;&#x43F;&#x438;&#x440;&#x43E;&#x432;&#x430;&#x442;&#x44C; 40"><path d="M0 9.323h2.379v1.5H0z" data-name="&#x41F;&#x440;&#x44F;&#x43C;&#x43E;&#x443;&#x433;&#x43E;&#x43B;&#x44C;&#x43D;&#x438;&#x43A; 151"/></g></g></g></symbol><symbol id="catalog3" viewBox="0 0 24 24"><path d="M23.24 17.436h-.9l-1.47-8.442-1.5.264 1.423 8.178h-3.356l-2.3-4.264 1.431-3.942-1.427-.527-1.549 4.268a.768.768 0 00.045.629l2.071 3.836h-.8a.753.753 0 00-.54.228l-2.466 2.516a.77.77 0 00-.22.538v2.516a.764.764 0 00.761.766h10.792a.764.764 0 00.76-.766v-5.032a.764.764 0 00-.755-.766zm-.761 5.032h-9.271v-1.435l2.023-2.065h7.248z" data-name="&#x41A;&#x43E;&#x43D;&#x442;&#x443;&#x440; 338"/><path d="M23.24 0H9.719a.763.763 0 00-.76.766v.584h-2.83a.763.763 0 00-.76.766v5.2a.763.763 0 00.76.766h2.833v.583a.763.763 0 00.76.766H23.24a.764.764 0 00.76-.766v-7.9A.764.764 0 0023.24 0zM6.889 6.549V2.882h2.073v3.667zm15.59 1.349h-12V1.532h12z" data-name="&#x41A;&#x43E;&#x43D;&#x442;&#x443;&#x440; 336"/><path d="M5.478 4.414V2.882h-1.6a.764.764 0 00-.76.766v.3H.004V5.48h3.114v.3a.764.764 0 00.76.766h1.6V5.014h-.843v-.6z" data-name="&#x41A;&#x43E;&#x43D;&#x442;&#x443;&#x440; 337"/></symbol><symbol id="catalog4" viewBox="0 0 24 24"><g data-name="&#x421;&#x433;&#x440;&#x443;&#x43F;&#x43F;&#x438;&#x440;&#x43E;&#x432;&#x430;&#x442;&#x44C; 49"><path d="M19.356 20.107H4.643a.75.75 0 01-.75-.75V4.644a.75.75 0 01.75-.75h14.713a.75.75 0 01.75.75v14.713a.75.75 0 01-.75.75zm-13.963-1.5h13.213V5.394H5.393z" data-name="&#x41A;&#x43E;&#x43D;&#x442;&#x443;&#x440; 344"/></g><g data-name="&#x421;&#x433;&#x440;&#x443;&#x43F;&#x43F;&#x438;&#x440;&#x43E;&#x432;&#x430;&#x442;&#x44C; 53"><g data-name="&#x421;&#x433;&#x440;&#x443;&#x43F;&#x43F;&#x438;&#x440;&#x43E;&#x432;&#x430;&#x442;&#x44C; 50"><circle cx="1.425" cy="1.425" r="1.425" data-name="&#x42D;&#x43B;&#x43B;&#x438;&#x43F;&#x441; 23" transform="translate(5.824)"/></g><g data-name="&#x421;&#x433;&#x440;&#x443;&#x43F;&#x43F;&#x438;&#x440;&#x43E;&#x432;&#x430;&#x442;&#x44C; 51"><circle cx="1.425" cy="1.425" r="1.425" data-name="&#x42D;&#x43B;&#x43B;&#x438;&#x43F;&#x441; 24" transform="translate(15.326)"/></g><g data-name="&#x421;&#x433;&#x440;&#x443;&#x43F;&#x43F;&#x438;&#x440;&#x43E;&#x432;&#x430;&#x442;&#x44C; 52"><circle cx="1.425" cy="1.425" r="1.425" data-name="&#x42D;&#x43B;&#x43B;&#x438;&#x43F;&#x441; 25" transform="translate(10.575)"/></g></g><g data-name="&#x421;&#x433;&#x440;&#x443;&#x43F;&#x43F;&#x438;&#x440;&#x43E;&#x432;&#x430;&#x442;&#x44C; 57"><g data-name="&#x421;&#x433;&#x440;&#x443;&#x43F;&#x43F;&#x438;&#x440;&#x43E;&#x432;&#x430;&#x442;&#x44C; 54"><circle cx="1.425" cy="1.425" r="1.425" data-name="&#x42D;&#x43B;&#x43B;&#x438;&#x43F;&#x441; 26" transform="translate(5.824)"/></g><g data-name="&#x421;&#x433;&#x440;&#x443;&#x43F;&#x43F;&#x438;&#x440;&#x43E;&#x432;&#x430;&#x442;&#x44C; 55"><circle cx="1.425" cy="1.425" r="1.425" data-name="&#x42D;&#x43B;&#x43B;&#x438;&#x43F;&#x441; 27" transform="translate(15.326)"/></g><g data-name="&#x421;&#x433;&#x440;&#x443;&#x43F;&#x43F;&#x438;&#x440;&#x43E;&#x432;&#x430;&#x442;&#x44C; 56"><circle cx="1.425" cy="1.425" r="1.425" data-name="&#x42D;&#x43B;&#x43B;&#x438;&#x43F;&#x441; 28" transform="translate(10.575)"/></g></g><g data-name="&#x421;&#x433;&#x440;&#x443;&#x43F;&#x43F;&#x438;&#x440;&#x43E;&#x432;&#x430;&#x442;&#x44C; 61"><g data-name="&#x421;&#x433;&#x440;&#x443;&#x43F;&#x43F;&#x438;&#x440;&#x43E;&#x432;&#x430;&#x442;&#x44C; 58"><circle cx="1.425" cy="1.425" r="1.425" data-name="&#x42D;&#x43B;&#x43B;&#x438;&#x43F;&#x441; 29" transform="translate(5.824 21.149)"/></g><g data-name="&#x421;&#x433;&#x440;&#x443;&#x43F;&#x43F;&#x438;&#x440;&#x43E;&#x432;&#x430;&#x442;&#x44C; 59"><circle cx="1.425" cy="1.425" r="1.425" data-name="&#x42D;&#x43B;&#x43B;&#x438;&#x43F;&#x441; 30" transform="translate(15.326 21.149)"/></g><g data-name="&#x421;&#x433;&#x440;&#x443;&#x43F;&#x43F;&#x438;&#x440;&#x43E;&#x432;&#x430;&#x442;&#x44C; 60"><circle cx="1.425" cy="1.425" r="1.425" data-name="&#x42D;&#x43B;&#x43B;&#x438;&#x43F;&#x441; 31" transform="translate(10.575 21.149)"/></g></g><g data-name="&#x421;&#x433;&#x440;&#x443;&#x43F;&#x43F;&#x438;&#x440;&#x43E;&#x432;&#x430;&#x442;&#x44C; 65"><g data-name="&#x421;&#x433;&#x440;&#x443;&#x43F;&#x43F;&#x438;&#x440;&#x43E;&#x432;&#x430;&#x442;&#x44C; 62"><circle cx="1.425" cy="1.425" r="1.425" data-name="&#x42D;&#x43B;&#x43B;&#x438;&#x43F;&#x441; 32" transform="translate(21.149 5.824)"/></g><g data-name="&#x421;&#x433;&#x440;&#x443;&#x43F;&#x43F;&#x438;&#x440;&#x43E;&#x432;&#x430;&#x442;&#x44C; 63"><circle cx="1.425" cy="1.425" r="1.425" data-name="&#x42D;&#x43B;&#x43B;&#x438;&#x43F;&#x441; 33" transform="translate(21.149 15.326)"/></g><g data-name="&#x421;&#x433;&#x440;&#x443;&#x43F;&#x43F;&#x438;&#x440;&#x43E;&#x432;&#x430;&#x442;&#x44C; 64"><circle cx="1.425" cy="1.425" r="1.425" data-name="&#x42D;&#x43B;&#x43B;&#x438;&#x43F;&#x441; 34" transform="translate(21.149 10.575)"/></g></g><g data-name="&#x421;&#x433;&#x440;&#x443;&#x43F;&#x43F;&#x438;&#x440;&#x43E;&#x432;&#x430;&#x442;&#x44C; 69"><g data-name="&#x421;&#x433;&#x440;&#x443;&#x43F;&#x43F;&#x438;&#x440;&#x43E;&#x432;&#x430;&#x442;&#x44C; 66"><circle cx="1.425" cy="1.425" r="1.425" data-name="&#x42D;&#x43B;&#x43B;&#x438;&#x43F;&#x441; 35" transform="translate(0 5.824)"/></g><g data-name="&#x421;&#x433;&#x440;&#x443;&#x43F;&#x43F;&#x438;&#x440;&#x43E;&#x432;&#x430;&#x442;&#x44C; 67"><circle cx="1.425" cy="1.425" r="1.425" data-name="&#x42D;&#x43B;&#x43B;&#x438;&#x43F;&#x441; 36" transform="translate(0 15.326)"/></g><g data-name="&#x421;&#x433;&#x440;&#x443;&#x43F;&#x43F;&#x438;&#x440;&#x43E;&#x432;&#x430;&#x442;&#x44C; 68"><circle cx="1.425" cy="1.425" r="1.425" data-name="&#x42D;&#x43B;&#x43B;&#x438;&#x43F;&#x441; 37" transform="translate(0 10.575)"/></g></g><g data-name="&#x421;&#x433;&#x440;&#x443;&#x43F;&#x43F;&#x438;&#x440;&#x43E;&#x432;&#x430;&#x442;&#x44C; 70"><path d="M16.751 17.501h-9.5a.75.75 0 01-.75-.75V12a.747.747 0 01.22-.53l4.751-4.751a.747.747 0 01.53-.22h4.751a.75.75 0 01.75.75v9.5a.75.75 0 01-.752.752zm-8.752-1.5h8v-8h-3.691l-4.311 4.312z" data-name="&#x41A;&#x43E;&#x43D;&#x442;&#x443;&#x440; 345"/></g></symbol><symbol id="catalog5" viewBox="0 0 12.68 24"><g data-name="&#x421;&#x433;&#x440;&#x443;&#x43F;&#x43F;&#x438;&#x440;&#x43E;&#x432;&#x430;&#x442;&#x44C; 72"><path d="M8.328 11.688v2.745H4.349v-2.745h3.976m1.146-1.516H3.203a.37.37 0 00-.37.37v5.037a.37.37 0 00.37.369h6.268a.369.369 0 00.369-.369v-5.037a.37.37 0 00-.369-.37z" data-name="&#x41A;&#x43E;&#x43D;&#x442;&#x443;&#x440; 346"/></g><path d="M11.164 0v6.759h-5a.962.962 0 00-.946-.833.962.962 0 00-.946.833h-.861a.962.962 0 00-.946-.833.964.964 0 00-.947.833H.754a.758.758 0 00-.758.758V17.66A6.347 6.347 0 006.335 24a6.347 6.347 0 006.341-6.34V0zm0 17.66a4.83 4.83 0 01-4.825 4.824 4.829 4.829 0 01-4.823-4.824V8.275h9.648z" data-name="&#x41A;&#x43E;&#x43D;&#x442;&#x443;&#x440; 347"/><g data-name="&#x421;&#x433;&#x440;&#x443;&#x43F;&#x43F;&#x438;&#x440;&#x43E;&#x432;&#x430;&#x442;&#x44C; 75"><g data-name="&#x421;&#x433;&#x440;&#x443;&#x43F;&#x43F;&#x438;&#x440;&#x43E;&#x432;&#x430;&#x442;&#x44C; 73"><path d="M2.836 17.497H5.68v1.516H2.836z" data-name="&#x41F;&#x440;&#x44F;&#x43C;&#x43E;&#x443;&#x433;&#x43E;&#x43B;&#x44C;&#x43D;&#x438;&#x43A; 152"/></g><g data-name="&#x421;&#x433;&#x440;&#x443;&#x43F;&#x43F;&#x438;&#x440;&#x43E;&#x432;&#x430;&#x442;&#x44C; 74"><path d="M7 17.497h2.844v1.516H7z" data-name="&#x41F;&#x440;&#x44F;&#x43C;&#x43E;&#x443;&#x433;&#x43E;&#x43B;&#x44C;&#x43D;&#x438;&#x43A; 153"/></g></g></symbol><symbol id="compare" viewBox="0 0 18.5 24"><path d="M0 0h1.5v24H0z" data-name="&#x41F;&#x440;&#x44F;&#x43C;&#x43E;&#x443;&#x433;&#x43E;&#x43B;&#x44C;&#x43D;&#x438;&#x43A; 22"/><path d="M5.667 11.82h1.5V24h-1.5z" data-name="&#x41F;&#x440;&#x44F;&#x43C;&#x43E;&#x443;&#x433;&#x43E;&#x43B;&#x44C;&#x43D;&#x438;&#x43A; 23"/><path d="M11.333 3.6h1.5v7.884h-1.5z" data-name="&#x41F;&#x440;&#x44F;&#x43C;&#x43E;&#x443;&#x433;&#x43E;&#x43B;&#x44C;&#x43D;&#x438;&#x43A; 24"/><path d="M17 7.02h1.5V24H17z" data-name="&#x41F;&#x440;&#x44F;&#x43C;&#x43E;&#x443;&#x433;&#x43E;&#x43B;&#x44C;&#x43D;&#x438;&#x43A; 25"/><path d="M11.333 13.129h1.5V24h-1.5z" data-name="&#x41F;&#x440;&#x44F;&#x43C;&#x43E;&#x443;&#x433;&#x43E;&#x43B;&#x44C;&#x43D;&#x438;&#x43A; 24"/></symbol><symbol id="favorites" viewBox="0 0 24 23.281"><path d="M12.522 23.281H11.48C10.304 22.081 0 11.395 0 7.481 0 3.356 3.027 0 6.746 0A6.524 6.524 0 0112 2.79 6.518 6.518 0 0117.253 0C20.973 0 24 3.356 24 7.481c.001 3.914-10.303 14.595-11.478 15.8zM6.747 1.501c-2.91 0-5.277 2.683-5.277 5.981 0 2.383 6.251 9.741 10.531 14.2 4.28-4.461 10.531-11.819 10.531-14.2 0-3.3-2.368-5.981-5.278-5.981a5.219 5.219 0 00-4.6 3.051h-1.31a5.221 5.221 0 00-4.597-3.051z" data-name="&#x41A;&#x43E;&#x43D;&#x442;&#x443;&#x440; 36"/><path d="M22.532 7.482c0-3.3-2.368-5.981-5.278-5.981a5.219 5.219 0 00-4.6 3.051L12 4.491v-1.7a6.518 6.518 0 015.253-2.79C20.973.001 24 3.357 24 7.482z" data-name="&#x41A;&#x43E;&#x43D;&#x442;&#x443;&#x440; 36"/></symbol><symbol id="key" viewBox="0 0 24 13.49"><g transform="translate(-18 -23)"><circle cx="1.404" cy="1.404" r="1.404" data-name="&#x42D;&#x43B;&#x43B;&#x438;&#x43F;&#x441; 6" transform="translate(23.286 28.332)"/><path d="M38.199 26.937h-7.327A6.765 6.765 0 0024.745 23 6.753 6.753 0 0018 29.745a6.753 6.753 0 006.745 6.745 6.767 6.767 0 006.127-3.937H42v-3.091zm2.269 4.084H29.823l-.184.5a5.228 5.228 0 01-4.894 3.434 5.219 5.219 0 01-5.213-5.213 5.219 5.219 0 015.213-5.213 5.226 5.226 0 014.894 3.433l.184.5h7.913l2.732 1.815z" data-name="&#x41A;&#x43E;&#x43D;&#x442;&#x443;&#x440; 35"/></g></symbol><symbol id="next" viewBox="0 0 9.061 5.591"><path stroke-width="1.5" d="M8.53.53l-4 4-4-4"/></symbol><symbol id="operator" viewBox="0 0 22.003 24"><g><path d="M9.733 10.581a1.618 1.618 0 00-1.619-1.618 1.618 1.618 0 00-1.619 1.618A1.619 1.619 0 008.114 12.2a1.619 1.619 0 001.619-1.619z" data-name="&#x41A;&#x43E;&#x43D;&#x442;&#x443;&#x440; 37"/><path d="M15.513 10.581a1.618 1.618 0 00-1.619-1.618 1.618 1.618 0 00-1.619 1.618 1.619 1.619 0 001.619 1.619 1.619 1.619 0 001.619-1.619z" data-name="&#x41A;&#x43E;&#x43D;&#x442;&#x443;&#x440; 38"/><path d="M22.003 11.381a2.883 2.883 0 00-2.65-2.865v-.17a8.359 8.359 0 00-8.349-8.349 8.3 8.3 0 00-5.2 1.827h-.075c0 .018.005.035.005.052a8.335 8.335 0 00-3.08 6.47v.239a2.884 2.884 0 00-2.655 2.866 2.885 2.885 0 002.655 2.866l1.532.02V8.346a6.794 6.794 0 012.058-4.873c1.453 2.273 5.884 3.877 11.52 4.041a6.72 6.72 0 01.056.832v5.879a6.784 6.784 0 01-3.6 5.992 2.489 2.489 0 00-2.235-1.408h-1.972a2.5 2.5 0 00-2.495 2.5v.2a2.5 2.5 0 002.495 2.5h1.972a2.491 2.491 0 002.464-2.185 8.315 8.315 0 004.9-7.565 2.884 2.884 0 002.654-2.878zm-20.471 0a1.357 1.357 0 011.123-1.334v2.668a1.357 1.357 0 01-1.123-1.334zm11.421 10.12a.964.964 0 01-.963.964h-1.972a.965.965 0 01-.963-.964v-.2a.964.964 0 01.963-.964h1.972a.964.964 0 01.963.964zM7.464 2.536a6.762 6.762 0 013.543-1.005 6.822 6.822 0 016.382 4.443c-5.266-.232-9.05-1.813-9.925-3.438zm11.892 10.182v-2.667a1.357 1.357 0 011.118 1.333 1.358 1.358 0 01-1.121 1.334z" data-name="&#x41A;&#x43E;&#x43D;&#x442;&#x443;&#x440; 39"/></g></symbol><symbol id="search" viewBox="0 0 20.002 19.998"><path d="M13.334 14.382l1.046-1.047 5.621 5.616-1.046 1.047z" data-name="&#x41F;&#x440;&#x44F;&#x43C;&#x43E;&#x443;&#x433;&#x43E;&#x43B;&#x44C;&#x43D;&#x438;&#x43A; 185"/><path d="M14.381 13.334a8.139 8.139 0 10-1.046 1.047zm-6.246 1.453a6.655 6.655 0 116.654-6.654 6.663 6.663 0 01-6.654 6.654z" data-name="&#x41A;&#x43E;&#x43D;&#x442;&#x443;&#x440; 41"/></symbol></svg>