<svg xmlns="http://www.w3.org/2000/svg" xmlns:xlink="http://www.w3.org/1999/xlink" width="36.324" height="40" viewBox="0 0 36.324 40">
  <defs>
    <clipPath id="clip-path">
      <path id="SVGID" d="M168.622,499.508H166.59l1.945-2.456v-1.075h-4.186v1.354h1.9l-1.945,2.456v1.074h4.317Z" transform="translate(-164.305 -495.978)" fill="#fff"/>
    </clipPath>
    <clipPath id="clip-path-2">
      <path id="SVGID-2" data-name="SVGID" d="M208.626,499.034h2.006v-1.256h-2.006v-.53h2.224v-1.27h-3.968v4.884h4.012v-1.284h-2.268Z" transform="translate(-206.882 -495.978)" fill="#fff"/>
    </clipPath>
    <clipPath id="clip-path-3">
      <path id="SVGID-3" data-name="SVGID" d="M247.858,495.978v4.884h3.75v-1.354H249.6v-3.53Z" transform="translate(-247.858 -495.978)" fill="#fff"/>
    </clipPath>
    <clipPath id="clip-path-4">
      <path id="SVGID-4" data-name="SVGID" d="M292,500.862v-4.884h-1.744l-1.439,1.989-1.439-1.989h-1.744v4.884h1.744v-2.379l1.361,1.828h.157l1.361-1.828v2.379Z" transform="translate(-285.633 -495.978)" fill="#fff"/>
    </clipPath>
    <clipPath id="clip-path-5">
      <path id="SVGID-5" data-name="SVGID" d="M343.419,500.234h1.762l.209.628h1.875l-1.945-4.884H343.28l-1.945,4.884h1.875Zm.881-2.616.506,1.5h-1.012Z" transform="translate(-341.335 -495.978)" fill="#fff"/>
    </clipPath>
    <clipPath id="clip-path-6">
      <path id="SVGID-6" data-name="SVGID" d="M397.15,498.211l-1.919-2.233h-1.4v4.884h1.744v-2.233l1.919,2.233h1.4v-4.884H397.15Z" transform="translate(-393.836 -495.978)" fill="#fff"/>
    </clipPath>
    <clipPath id="clip-path-7">
      <path id="SVGID-7" data-name="SVGID" d="M164.3,542.511h1.052v3.1h.343v-3.1h1.052v-.323H164.3Z" transform="translate(-164.305 -542.188)" fill="#fff"/>
    </clipPath>
    <clipPath id="clip-path-8">
      <path id="SVGID-8" data-name="SVGID" d="M189.8,544.048h1.517v-.323H189.8v-1.214h1.64v-.323h-1.982v3.426h2.007v-.323H189.8Z" transform="translate(-189.455 -542.188)" fill="#fff"/>
    </clipPath>
    <clipPath id="clip-path-9">
      <path id="SVGID-9" data-name="SVGID" d="M210.983,542.27a1.787,1.787,0,0,0,2.161,2.8,1.569,1.569,0,0,0,.609-.617l-.3-.171a1.215,1.215,0,0,1-.48.5,1.361,1.361,0,0,1-.7.186,1.439,1.439,0,1,1,0-2.878,1.362,1.362,0,0,1,.7.186,1.218,1.218,0,0,1,.48.5l.3-.176a1.593,1.593,0,0,0-.612-.614,1.717,1.717,0,0,0-.871-.228,1.735,1.735,0,0,0-1.287.514" transform="translate(-210.474 -541.756)" fill="#fff"/>
    </clipPath>
    <clipPath id="clip-path-10">
      <path id="SVGID-10" data-name="SVGID" d="M244.473,542.188v1.5h-1.86v-1.5h-.343v3.426h.343v-1.6h1.86v1.6h.343v-3.426Z" transform="translate(-242.271 -542.188)" fill="#fff"/>
    </clipPath>
    <clipPath id="clip-path-11">
      <path id="SVGID-11" data-name="SVGID" d="M272.5,542.188v2.79l-1.909-2.79H270.3v3.426h.343v-2.79l1.909,2.79h.294v-3.426Z" transform="translate(-270.296 -542.188)" fill="#fff"/>
    </clipPath>
    <clipPath id="clip-path-12">
      <path id="SVGID-12" data-name="SVGID" d="M297.637,544.548a1.472,1.472,0,0,1,0-2.041,1.448,1.448,0,0,1,2.036,0,1.472,1.472,0,0,1,0,2.041,1.448,1.448,0,0,1-2.036,0m-.24-2.276a1.79,1.79,0,1,0,1.258-.516,1.713,1.713,0,0,0-1.258.516" transform="translate(-296.883 -541.756)" fill="#fff"/>
    </clipPath>
    <clipPath id="clip-path-13">
      <path id="SVGID-13" data-name="SVGID" d="M330.8,542.188v3.426h1.909v-.323h-1.566v-3.1Z" transform="translate(-330.8 -542.188)" fill="#fff"/>
    </clipPath>
    <clipPath id="clip-path-14">
      <path id="SVGID-14" data-name="SVGID" d="M349.518,544.548a1.472,1.472,0,0,1,0-2.041,1.447,1.447,0,0,1,2.036,0,1.472,1.472,0,0,1,0,2.041,1.448,1.448,0,0,1-2.036,0m-.24-2.276a1.79,1.79,0,1,0,1.258-.516,1.713,1.713,0,0,0-1.258.516" transform="translate(-348.764 -541.756)" fill="#fff"/>
    </clipPath>
    <clipPath id="clip-path-15">
      <path id="SVGID-15" data-name="SVGID" d="M381.754,542.27a1.772,1.772,0,0,0,1.287,3.029,1.682,1.682,0,0,0,1.219-.438,1.432,1.432,0,0,0,.455-1.074v-.176H383v.323h1.361a1.088,1.088,0,0,1-.4.742,1.46,1.46,0,0,1-2.379-1.148,1.406,1.406,0,0,1,1.454-1.439,1.362,1.362,0,0,1,.7.186,1.217,1.217,0,0,1,.48.5l.3-.176a1.62,1.62,0,0,0-.612-.612,1.707,1.707,0,0,0-.871-.23,1.735,1.735,0,0,0-1.287.514" transform="translate(-381.245 -541.756)" fill="#fff"/>
    </clipPath>
    <clipPath id="clip-path-16">
      <path id="SVGID-16" data-name="SVGID" d="M412.74,542.188l-1.018,1.679-1.023-1.679h-.387l1.233,2.012v1.414h.342v-1.4l1.238-2.021Z" transform="translate(-410.312 -542.188)" fill="#fff"/>
    </clipPath>
    <clipPath id="clip-path-17">
      <path id="SVGID-17" data-name="SVGID" d="M290.949,357.453l-3.178,4.541h19.506v-4.541Z" transform="translate(-287.771 -357.453)" fill="#fff"/>
    </clipPath>
    <clipPath id="clip-path-18">
      <path id="SVGID-18" data-name="SVGID" d="M349.29,274.121l-3.179,4.54H357.67v-4.54Z" transform="translate(-346.111 -274.121)" fill="#fff"/>
    </clipPath>
    <clipPath id="clip-path-19">
      <path id="SVGID-19" data-name="SVGID" d="M341.971,274.121l-3.179,4.54h.665l3.18-4.54Z" transform="translate(-338.792 -274.121)" fill="#fff"/>
    </clipPath>
    <clipPath id="clip-path-20">
      <path id="SVGID-20" data-name="SVGID" d="M334.649,274.121l-3.178,4.54h.664l3.179-4.54Z" transform="translate(-331.471 -274.121)" fill="#fff"/>
    </clipPath>
    <clipPath id="clip-path-21">
      <path id="SVGID-21" data-name="SVGID" d="M327.324,274.121l-3.179,4.54h.665l3.179-4.54Z" transform="translate(-324.145 -274.121)" fill="#fff"/>
    </clipPath>
    <clipPath id="clip-path-22">
      <path id="SVGID-22" data-name="SVGID" d="M167.512,274.121l3.179,4.54h12.28L172.162,294.1h5.543l13.989-19.978Z" transform="translate(-167.512 -274.121)" fill="#fff"/>
    </clipPath>
    <clipPath id="clip-path-23">
      <path id="SVGID-23" data-name="SVGID" d="M167.484,440.787l-3.179,4.54h36.324v-4.54Z" transform="translate(-164.305 -440.787)" fill="#fff"/>
    </clipPath>
    <clipPath id="clip-path-24">
      <path id="SVGID-24" data-name="SVGID" d="M197.827,422.787l-.382.545h5.543l.382-.545Z" transform="translate(-197.445 -422.787)" fill="#fff"/>
    </clipPath>
    <clipPath id="clip-path-25">
      <path id="SVGID-25" data-name="SVGID" d="M193.625,428.786l-.381.545h5.543l.381-.545Z" transform="translate(-193.244 -428.786)" fill="#fff"/>
    </clipPath>
    <clipPath id="clip-path-26">
      <path id="SVGID-26" data-name="SVGID" d="M189.426,434.787l-.381.545h5.543l.381-.545Z" transform="translate(-189.045 -434.787)" fill="#fff"/>
    </clipPath>
  </defs>
  <g id="Logo" transform="translate(-164.305 -274.121)">
    <g id="Сгруппировать_81" data-name="Сгруппировать 81" transform="translate(164.305 304.342)">
      <g id="Сгруппировать_80" data-name="Сгруппировать 80" transform="translate(0 0)" clip-path="url(#clip-path)">
        <rect id="Прямоугольник_157" data-name="Прямоугольник 157" width="4.317" height="4.884" transform="translate(0 0)" fill="#fff"/>
      </g>
    </g>
    <g id="Сгруппировать_83" data-name="Сгруппировать 83" transform="translate(170.105 304.342)">
      <g id="Сгруппировать_82" data-name="Сгруппировать 82" transform="translate(0 0)" clip-path="url(#clip-path-2)">
        <rect id="Прямоугольник_158" data-name="Прямоугольник 158" width="4.012" height="4.884" transform="translate(0 0)" fill="#fff"/>
      </g>
    </g>
    <g id="Сгруппировать_85" data-name="Сгруппировать 85" transform="translate(175.686 304.342)">
      <g id="Сгруппировать_84" data-name="Сгруппировать 84" transform="translate(0 0)" clip-path="url(#clip-path-3)">
        <rect id="Прямоугольник_159" data-name="Прямоугольник 159" width="3.75" height="4.884" transform="translate(0 0)" fill="#fff"/>
      </g>
    </g>
    <g id="Сгруппировать_87" data-name="Сгруппировать 87" transform="translate(180.832 304.342)">
      <g id="Сгруппировать_86" data-name="Сгруппировать 86" transform="translate(0 0)" clip-path="url(#clip-path-4)">
        <rect id="Прямоугольник_160" data-name="Прямоугольник 160" width="6.367" height="4.884" transform="translate(0 0)" fill="#fff"/>
      </g>
    </g>
    <g id="Сгруппировать_89" data-name="Сгруппировать 89" transform="translate(188.42 304.342)">
      <g id="Сгруппировать_88" data-name="Сгруппировать 88" transform="translate(0 0)" clip-path="url(#clip-path-5)">
        <rect id="Прямоугольник_161" data-name="Прямоугольник 161" width="5.931" height="4.884" transform="translate(0 0)" fill="#fff"/>
      </g>
    </g>
    <g id="Сгруппировать_91" data-name="Сгруппировать 91" transform="translate(195.571 304.342)">
      <g id="Сгруппировать_90" data-name="Сгруппировать 90" transform="translate(0 0)" clip-path="url(#clip-path-6)">
        <rect id="Прямоугольник_162" data-name="Прямоугольник 162" width="5.058" height="4.884" transform="translate(0 0)" fill="#fff"/>
      </g>
    </g>
    <g id="Сгруппировать_93" data-name="Сгруппировать 93" transform="translate(164.305 310.636)">
      <g id="Сгруппировать_92" data-name="Сгруппировать 92" transform="translate(0)" clip-path="url(#clip-path-7)">
        <rect id="Прямоугольник_163" data-name="Прямоугольник 163" width="2.447" height="3.426" transform="translate(0)" fill="#fff"/>
      </g>
    </g>
    <g id="Сгруппировать_95" data-name="Сгруппировать 95" transform="translate(167.731 310.636)">
      <g id="Сгруппировать_94" data-name="Сгруппировать 94" transform="translate(0)" clip-path="url(#clip-path-8)">
        <rect id="Прямоугольник_164" data-name="Прямоугольник 164" width="2.007" height="3.426" transform="translate(0)" fill="#fff"/>
      </g>
    </g>
    <g id="Сгруппировать_97" data-name="Сгруппировать 97" transform="translate(170.594 310.577)">
      <g id="Сгруппировать_96" data-name="Сгруппировать 96" transform="translate(0 0)" clip-path="url(#clip-path-9)">
        <rect id="Прямоугольник_165" data-name="Прямоугольник 165" width="3.279" height="3.544" transform="translate(0 0)" fill="#fff"/>
      </g>
    </g>
    <g id="Сгруппировать_99" data-name="Сгруппировать 99" transform="translate(174.925 310.636)">
      <g id="Сгруппировать_98" data-name="Сгруппировать 98" transform="translate(0)" clip-path="url(#clip-path-10)">
        <rect id="Прямоугольник_166" data-name="Прямоугольник 166" width="2.545" height="3.426" fill="#fff"/>
      </g>
    </g>
    <g id="Сгруппировать_101" data-name="Сгруппировать 101" transform="translate(178.743 310.636)">
      <g id="Сгруппировать_100" data-name="Сгруппировать 100" transform="translate(0)" clip-path="url(#clip-path-11)">
        <rect id="Прямоугольник_167" data-name="Прямоугольник 167" width="2.545" height="3.426" fill="#fff"/>
      </g>
    </g>
    <g id="Сгруппировать_103" data-name="Сгруппировать 103" transform="translate(182.364 310.577)">
      <g id="Сгруппировать_102" data-name="Сгруппировать 102" transform="translate(0 0)" clip-path="url(#clip-path-12)">
        <rect id="Прямоугольник_168" data-name="Прямоугольник 168" width="3.544" height="3.544" transform="translate(0 0)" fill="#fff"/>
      </g>
    </g>
    <g id="Сгруппировать_105" data-name="Сгруппировать 105" transform="translate(186.984 310.636)">
      <g id="Сгруппировать_104" data-name="Сгруппировать 104" transform="translate(0)" clip-path="url(#clip-path-13)">
        <rect id="Прямоугольник_169" data-name="Прямоугольник 169" width="1.909" height="3.426" transform="translate(0)" fill="#fff"/>
      </g>
    </g>
    <g id="Сгруппировать_107" data-name="Сгруппировать 107" transform="translate(189.431 310.577)">
      <g id="Сгруппировать_106" data-name="Сгруппировать 106" transform="translate(0 0)" clip-path="url(#clip-path-14)">
        <rect id="Прямоугольник_170" data-name="Прямоугольник 170" width="3.544" height="3.544" transform="translate(0 0)" fill="#fff"/>
      </g>
    </g>
    <g id="Сгруппировать_109" data-name="Сгруппировать 109" transform="translate(193.856 310.577)">
      <g id="Сгруппировать_108" data-name="Сгруппировать 108" transform="translate(0 0)" clip-path="url(#clip-path-15)">
        <rect id="Прямоугольник_171" data-name="Прямоугольник 171" width="3.47" height="3.544" transform="translate(0 0)" fill="#fff"/>
      </g>
    </g>
    <g id="Сгруппировать_111" data-name="Сгруппировать 111" transform="translate(197.815 310.636)">
      <g id="Сгруппировать_110" data-name="Сгруппировать 110" transform="translate(0)" clip-path="url(#clip-path-16)">
        <rect id="Прямоугольник_172" data-name="Прямоугольник 172" width="2.814" height="3.426" fill="#fff"/>
      </g>
    </g>
    <g id="Сгруппировать_113" data-name="Сгруппировать 113" transform="translate(181.123 285.472)">
      <g id="Сгруппировать_112" data-name="Сгруппировать 112" transform="translate(0 0)" clip-path="url(#clip-path-17)">
        <rect id="Прямоугольник_173" data-name="Прямоугольник 173" width="19.506" height="4.541" fill="#fff"/>
      </g>
    </g>
    <g id="Сгруппировать_115" data-name="Сгруппировать 115" transform="translate(189.07 274.121)">
      <g id="Сгруппировать_114" data-name="Сгруппировать 114" transform="translate(0)" clip-path="url(#clip-path-18)">
        <rect id="Прямоугольник_174" data-name="Прямоугольник 174" width="11.559" height="4.541" transform="translate(0 0)" fill="#fff"/>
      </g>
    </g>
    <g id="Сгруппировать_117" data-name="Сгруппировать 117" transform="translate(188.073 274.121)">
      <g id="Сгруппировать_116" data-name="Сгруппировать 116" transform="translate(0)" clip-path="url(#clip-path-19)">
        <rect id="Прямоугольник_175" data-name="Прямоугольник 175" width="3.845" height="4.541" transform="translate(0 0)" fill="#fff"/>
      </g>
    </g>
    <g id="Сгруппировать_119" data-name="Сгруппировать 119" transform="translate(187.076 274.121)">
      <g id="Сгруппировать_118" data-name="Сгруппировать 118" transform="translate(0)" clip-path="url(#clip-path-20)">
        <rect id="Прямоугольник_176" data-name="Прямоугольник 176" width="3.843" height="4.541" transform="translate(0 0)" fill="#fff"/>
      </g>
    </g>
    <g id="Сгруппировать_121" data-name="Сгруппировать 121" transform="translate(186.078 274.121)">
      <g id="Сгруппировать_120" data-name="Сгруппировать 120" clip-path="url(#clip-path-21)">
        <rect id="Прямоугольник_177" data-name="Прямоугольник 177" width="3.844" height="4.541" transform="translate(0 0)" fill="#fff"/>
      </g>
    </g>
    <g id="Сгруппировать_123" data-name="Сгруппировать 123" transform="translate(164.742 274.121)">
      <g id="Сгруппировать_122" data-name="Сгруппировать 122" transform="translate(0)" clip-path="url(#clip-path-22)">
        <rect id="Прямоугольник_178" data-name="Прямоугольник 178" width="24.182" height="19.978" transform="translate(0 0)" fill="#fff"/>
      </g>
    </g>
    <g id="Сгруппировать_125" data-name="Сгруппировать 125" transform="translate(164.305 296.824)">
      <g id="Сгруппировать_124" data-name="Сгруппировать 124" transform="translate(0 0)" clip-path="url(#clip-path-23)">
        <rect id="Прямоугольник_179" data-name="Прямоугольник 179" width="36.324" height="4.541" transform="translate(0)" fill="#fff"/>
      </g>
    </g>
    <g id="Сгруппировать_127" data-name="Сгруппировать 127" transform="translate(168.819 294.372)">
      <g id="Сгруппировать_126" data-name="Сгруппировать 126" transform="translate(0 0)" clip-path="url(#clip-path-24)">
        <rect id="Прямоугольник_180" data-name="Прямоугольник 180" width="5.925" height="0.545" transform="translate(0)" fill="#fff"/>
      </g>
    </g>
    <g id="Сгруппировать_129" data-name="Сгруппировать 129" transform="translate(168.247 295.189)">
      <g id="Сгруппировать_128" data-name="Сгруппировать 128" transform="translate(0 0)" clip-path="url(#clip-path-25)">
        <rect id="Прямоугольник_181" data-name="Прямоугольник 181" width="5.925" height="0.545" transform="translate(0 0)" fill="#fff"/>
      </g>
    </g>
    <g id="Сгруппировать_131" data-name="Сгруппировать 131" transform="translate(167.675 296.006)">
      <g id="Сгруппировать_130" data-name="Сгруппировать 130" transform="translate(0 0)" clip-path="url(#clip-path-26)">
        <rect id="Прямоугольник_182" data-name="Прямоугольник 182" width="5.924" height="0.545" transform="translate(0)" fill="#fff"/>
      </g>
    </g>
  </g>
</svg>
