<svg xmlns="http://www.w3.org/2000/svg" width="17.251" height="12" viewBox="0 0 17.251 12">
  <path id="Delivery" d="M1105.617-136.853h-2.3v-1.641H1092.6v9.821h2a2.239,2.239,0,0,0,2.236,2.179,2.238,2.238,0,0,0,2.236-2.179h4.292v-6.72H1105l3.449,3.9v1.4h-.958a2.217,2.217,0,0,0-1.327-.86,2.2,2.2,0,0,0-1.677.3,2.231,2.231,0,0,0-.666,3.079,2.233,2.233,0,0,0,3.079.665,2.216,2.216,0,0,0,1.018-1.749h1.922l.01-3.393Zm-8.807,7.325a.8.8,0,0,1,.8.8.8.8,0,0,1-.8.8.8.8,0,0,1-.8-.8A.8.8,0,0,1,1096.81-129.528Zm5.069-7.526v6.941h-3.313a2.2,2.2,0,0,0-1.757-.855,2.241,2.241,0,0,0-1.752.855h-1.021v-6.941Zm4.6,8.246a.8.8,0,0,1-.8.8.8.8,0,0,1-.8-.8.8.8,0,0,1,.8-.8A.8.8,0,0,1,1106.478-128.808Z" transform="translate(-1092.596 138.494)" fill="#fff"/>
</svg>
