<svg xmlns="http://www.w3.org/2000/svg" width="24" height="24" viewBox="0 0 24 24">
  <g id="cart" transform="translate(-148 -530)">
    <path id="Контур_33" data-name="Контур 33" d="M204.4-454.307H191.809l-.394-1.486h7.923a4.873,4.873,0,0,0,4.523-3.079l3.2-7.9H188.5l-.385-1.45a5.264,5.264,0,0,0-5.06-3.937v1.515a3.766,3.766,0,0,1,3.619,2.816l3.988,15.038H204.4Zm.427-10.951-2.35,5.81a3.385,3.385,0,0,1-3.142,2.14h-8.325l-2.108-7.95Z" transform="translate(-35.058 1002.162)" fill="#fff"/>
    <ellipse id="Эллипс_4" data-name="Эллипс 4" cx="1.493" cy="1.516" rx="1.493" ry="1.516" transform="translate(166.36 550.968)" fill="#ea5e20"/>
    <ellipse id="Эллипс_5" data-name="Эллипс 5" cx="1.493" cy="1.516" rx="1.493" ry="1.516" transform="translate(156.185 550.968)" fill="#ea5e20"/>
  </g>
</svg>
