<svg id="Equipment" xmlns="http://www.w3.org/2000/svg" width="24" height="24" viewBox="0 0 24 24">
  <path id="Контур_338" data-name="Контур 338" d="M579.421-299.572h-.9l-1.47-8.442-1.5.264,1.423,8.178h-3.356l-2.3-4.264,1.431-3.942-1.427-.527-1.549,4.268a.768.768,0,0,0,.045.629l2.071,3.836h-.8a.753.753,0,0,0-.54.228l-2.466,2.516a.77.77,0,0,0-.22.538v2.516a.764.764,0,0,0,.761.766h10.792a.764.764,0,0,0,.76-.766v-5.032A.764.764,0,0,0,579.421-299.572Zm-.761,5.032h-9.271v-1.435l2.023-2.065h7.248Z" transform="translate(-556.181 317.008)" fill="#232462"/>
  <path id="Контур_336" data-name="Контур 336" d="M579.421-317.008H565.9a.763.763,0,0,0-.76.766v.584H562.31a.763.763,0,0,0-.76.766v5.2a.763.763,0,0,0,.76.766h2.833v.583a.763.763,0,0,0,.76.766h13.518a.764.764,0,0,0,.76-.766v-7.9A.764.764,0,0,0,579.421-317.008Zm-16.351,6.549v-3.667h2.073v3.667Zm15.59,1.349h-12v-6.366h12Z" transform="translate(-556.181 317.008)" fill="#ea5e20"/>
  <path id="Контур_337" data-name="Контур 337" d="M561.659-312.594v-1.532h-1.6a.764.764,0,0,0-.76.766v.3h-3.114v1.532h3.114v.3a.764.764,0,0,0,.76.766h1.6v-1.532h-.843v-.6Z" transform="translate(-556.181 317.008)" fill="#232462"/>
</svg>
