<svg id="Powersupply" xmlns="http://www.w3.org/2000/svg" width="20.586" height="24" viewBox="0 0 20.586 24">
  <g id="Сгруппировать_35" data-name="Сгруппировать 35" transform="translate(4.052 3.715)">
    <path id="Контур_334" data-name="Контур 334" d="M747.308-358.607h-1.5v-2.257a1.062,1.062,0,0,1,.619-.96,4.85,4.85,0,0,0,2.7-5.456,4.8,4.8,0,0,0-3.664-3.654,4.875,4.875,0,0,0-4.1.968,4.814,4.814,0,0,0-1.787,3.751,4.844,4.844,0,0,0,2.817,4.39,1.067,1.067,0,0,1,.619.96v2.258h-1.5v-1.978a6.353,6.353,0,0,1-3.436-5.63,6.3,6.3,0,0,1,2.342-4.915,6.36,6.36,0,0,1,5.346-1.272,6.321,6.321,0,0,1,4.825,4.811,6.342,6.342,0,0,1-3.289,7.006Z" transform="translate(-738.084 372.543)" fill="#ea5e20"/>
  </g>
  <path id="Контур_335" data-name="Контур 335" d="M747.4-359.093H741.4a.75.75,0,0,0-.75.75v4.022a.75.75,0,0,0,.75.75h1.759v.076a1.237,1.237,0,0,0,1.237,1.237,1.237,1.237,0,0,0,1.237-1.237v-.076H747.4a.75.75,0,0,0,.75-.75v-4.022A.75.75,0,0,0,747.4-359.093Zm-.75,4.022h-4.492v-2.522h4.492Z" transform="translate(-734.032 376.258)" fill="#232462"/>
  <g id="Сгруппировать_42" data-name="Сгруппировать 42">
    <g id="Сгруппировать_36" data-name="Сгруппировать 36" transform="translate(9.543)">
      <rect id="Прямоугольник_147" data-name="Прямоугольник 147" width="1.5" height="2.379" fill="#232462"/>
    </g>
    <g id="Сгруппировать_37" data-name="Сгруппировать 37" transform="translate(16.205 2.549)">
      <rect id="Прямоугольник_148" data-name="Прямоугольник 148" width="2.379" height="1.5" transform="translate(0 1.682) rotate(-45)" fill="#232462"/>
    </g>
    <g id="Сгруппировать_38" data-name="Сгруппировать 38" transform="translate(1.639 2.549)">
      <rect id="Прямоугольник_149" data-name="Прямоугольник 149" width="1.5" height="2.379" transform="translate(0 1.061) rotate(-45.008)" fill="#232462"/>
    </g>
    <g id="Сгруппировать_41" data-name="Сгруппировать 41" transform="translate(0 9.323)">
      <g id="Сгруппировать_39" data-name="Сгруппировать 39" transform="translate(18.207)">
        <rect id="Прямоугольник_150" data-name="Прямоугольник 150" width="2.379" height="1.5" fill="#232462"/>
      </g>
      <g id="Сгруппировать_40" data-name="Сгруппировать 40">
        <rect id="Прямоугольник_151" data-name="Прямоугольник 151" width="2.379" height="1.5" fill="#232462"/>
      </g>
    </g>
  </g>
</svg>
