<svg id="Telecommunications" xmlns="http://www.w3.org/2000/svg" width="12.68" height="24" viewBox="0 0 12.68 24">
  <g id="Сгруппировать_72" data-name="Сгруппировать 72" transform="translate(2.836 10.172)">
    <path id="Контур_346" data-name="Контур 346" d="M787.079-303.495v2.745H783.1v-2.745h3.976m1.146-1.516h-6.268a.37.37,0,0,0-.37.37v5.037a.37.37,0,0,0,.37.369h6.268a.369.369,0,0,0,.369-.369v-5.037a.37.37,0,0,0-.369-.37Z" transform="translate(-781.587 305.011)" fill="#ea5e20"/>
  </g>
  <path id="Контур_347" data-name="Контур 347" d="M789.915-315.183v6.759h-5a.962.962,0,0,0-.946-.833.962.962,0,0,0-.946.833h-.861a.962.962,0,0,0-.946-.833.964.964,0,0,0-.947.833h-.764a.758.758,0,0,0-.758.758v10.143a6.347,6.347,0,0,0,6.339,6.34,6.347,6.347,0,0,0,6.341-6.34v-17.66Zm0,17.66a4.83,4.83,0,0,1-4.825,4.824,4.829,4.829,0,0,1-4.823-4.824v-9.385h9.648Z" transform="translate(-778.751 315.183)" fill="#242568"/>
  <g id="Сгруппировать_75" data-name="Сгруппировать 75" transform="translate(2.836 17.497)">
    <g id="Сгруппировать_73" data-name="Сгруппировать 73">
      <rect id="Прямоугольник_152" data-name="Прямоугольник 152" width="2.844" height="1.516" fill="#242568"/>
    </g>
    <g id="Сгруппировать_74" data-name="Сгруппировать 74" transform="translate(4.164)">
      <rect id="Прямоугольник_153" data-name="Прямоугольник 153" width="2.844" height="1.516" fill="#242568"/>
    </g>
  </g>
</svg>
