<svg id="Electronics" xmlns="http://www.w3.org/2000/svg" width="24" height="24" viewBox="0 0 24 24">
  <g id="Сгруппировать_46" data-name="Сгруппировать 46" transform="translate(11.381)">
    <path id="Контур_340" data-name="Контур 340" d="M646.434-268.979l1.045-1.062a1.825,1.825,0,0,0,.725.149,1.871,1.871,0,0,0,1.855-1.887,1.872,1.872,0,0,0-1.855-1.887,1.872,1.872,0,0,0-1.856,1.887,1.916,1.916,0,0,0,.147.737l-.841.856h-3.576v1.415h3.864A.688.688,0,0,0,646.434-268.979Z" transform="translate(-642.078 273.666)" fill="#ea5e20"/>
    <path id="Контур_341" data-name="Контур 341" d="M646.717-265.469v1.415h3.863a.687.687,0,0,0,.492-.207l1.045-1.063a1.829,1.829,0,0,0,.725.15,1.871,1.871,0,0,0,1.855-1.887,1.871,1.871,0,0,0-1.855-1.887,1.871,1.871,0,0,0-1.855,1.887,1.9,1.9,0,0,0,.147.736l-.842.856Z" transform="translate(-642.078 273.666)" fill="#ea5e20"/>
    <path id="Контур_342" data-name="Контур 342" d="M648.2-253.44a1.826,1.826,0,0,0-.725.15l-1.045-1.063a.691.691,0,0,0-.492-.207h-3.864v1.415h3.576l.841.856a1.914,1.914,0,0,0-.147.736,1.871,1.871,0,0,0,1.856,1.887,1.871,1.871,0,0,0,1.855-1.887A1.872,1.872,0,0,0,648.2-253.44Z" transform="translate(-642.078 273.666)" fill="#ea5e20"/>
    <path id="Контур_343" data-name="Контур 343" d="M652.842-258.157a1.829,1.829,0,0,0-.725.15l-1.045-1.063a.687.687,0,0,0-.492-.207h-3.863v1.415h3.575l.842.855a1.9,1.9,0,0,0-.147.737,1.871,1.871,0,0,0,1.855,1.887,1.871,1.871,0,0,0,1.855-1.887A1.871,1.871,0,0,0,652.842-258.157Z" transform="translate(-642.078 273.666)" fill="#ea5e20"/>
  </g>
  <path id="Контур_339" data-name="Контур 339" d="M642.757-268.423v-4.3a.7.7,0,0,0-.7-.708,11.189,11.189,0,0,0-1.8.158.7.7,0,0,0-.569.543l-.284,1.277a9.609,9.609,0,0,0-2.13.9l-1.1-.7a.687.687,0,0,0-.78.025,11.544,11.544,0,0,0-2.541,2.585.719.719,0,0,0-.024.793l.692,1.114a10,10,0,0,0-.89,2.168l-1.255.288a.705.705,0,0,0-.535.58,11.984,11.984,0,0,0-.154,1.827,11.983,11.983,0,0,0,.154,1.827.705.705,0,0,0,.535.58l1.255.288a10.018,10.018,0,0,0,.89,2.168l-.692,1.114a.719.719,0,0,0,.024.793,11.518,11.518,0,0,0,2.541,2.584.684.684,0,0,0,.78.026l1.1-.7a9.651,9.651,0,0,0,2.13.9l.284,1.277a.7.7,0,0,0,.569.543,11.188,11.188,0,0,0,1.8.158.7.7,0,0,0,.7-.708v-4.968a.7.7,0,0,0-.7-.707,5.138,5.138,0,0,1-5.088-5.175,5.138,5.138,0,0,1,5.088-5.175,5.139,5.139,0,0,1,5.089,5.175h1.391A6.558,6.558,0,0,0,642.757-268.423Zm-1.392,0a6.561,6.561,0,0,0-5.784,6.553,6.56,6.56,0,0,0,5.784,6.552v3.56c-.136-.011-.275-.025-.419-.043l-.271-1.222a.7.7,0,0,0-.521-.533,8.283,8.283,0,0,1-2.517-1.068.684.684,0,0,0-.74,0l-1.047.673a10.142,10.142,0,0,1-1.577-1.6l.661-1.065a.717.717,0,0,0,0-.752,8.523,8.523,0,0,1-1.05-2.561.7.7,0,0,0-.525-.529l-1.2-.276a9.612,9.612,0,0,1-.071-1.134,9.393,9.393,0,0,1,.072-1.134l1.2-.276a.7.7,0,0,0,.525-.53,8.528,8.528,0,0,1,1.05-2.56.717.717,0,0,0,0-.752l-.661-1.065a10.057,10.057,0,0,1,1.577-1.6l1.047.673a.69.69,0,0,0,.74,0,8.286,8.286,0,0,1,2.517-1.068.7.7,0,0,0,.521-.533l.271-1.222c.144-.018.283-.032.419-.043Z" transform="translate(-630.697 273.666)" fill="#242568"/>
  <g id="Сгруппировать_47" data-name="Сгруппировать 47" transform="translate(8.284 8.662)">
    <ellipse id="Эллипс_22" data-name="Эллипс 22" cx="3.08" cy="3.132" rx="3.08" ry="3.132" fill="#242568"/>
  </g>
</svg>
