<svg id="Developmenttools" xmlns="http://www.w3.org/2000/svg" width="24" height="24" viewBox="0 0 24 24">
  <g id="Сгруппировать_49" data-name="Сгруппировать 49" transform="translate(3.893 3.894)">
    <path id="Контур_344" data-name="Контур 344" d="M722.485-271.377H707.772a.75.75,0,0,1-.75-.75V-286.84a.75.75,0,0,1,.75-.75h14.713a.75.75,0,0,1,.75.75v14.713A.75.75,0,0,1,722.485-271.377Zm-13.963-1.5h13.213V-286.09H708.522Z" transform="translate(-707.022 287.59)" fill="#242568"/>
  </g>
  <g id="Сгруппировать_53" data-name="Сгруппировать 53" transform="translate(5.824)">
    <g id="Сгруппировать_50" data-name="Сгруппировать 50">
      <circle id="Эллипс_23" data-name="Эллипс 23" cx="1.425" cy="1.425" r="1.425" fill="#242568"/>
    </g>
    <g id="Сгруппировать_51" data-name="Сгруппировать 51" transform="translate(9.502)">
      <circle id="Эллипс_24" data-name="Эллипс 24" cx="1.425" cy="1.425" r="1.425" fill="#242568"/>
    </g>
    <g id="Сгруппировать_52" data-name="Сгруппировать 52" transform="translate(4.751)">
      <circle id="Эллипс_25" data-name="Эллипс 25" cx="1.425" cy="1.425" r="1.425" fill="#242568"/>
    </g>
  </g>
  <g id="Сгруппировать_57" data-name="Сгруппировать 57" transform="translate(5.824)">
    <g id="Сгруппировать_54" data-name="Сгруппировать 54">
      <circle id="Эллипс_26" data-name="Эллипс 26" cx="1.425" cy="1.425" r="1.425" fill="#242568"/>
    </g>
    <g id="Сгруппировать_55" data-name="Сгруппировать 55" transform="translate(9.502)">
      <circle id="Эллипс_27" data-name="Эллипс 27" cx="1.425" cy="1.425" r="1.425" fill="#242568"/>
    </g>
    <g id="Сгруппировать_56" data-name="Сгруппировать 56" transform="translate(4.751)">
      <circle id="Эллипс_28" data-name="Эллипс 28" cx="1.425" cy="1.425" r="1.425" fill="#242568"/>
    </g>
  </g>
  <g id="Сгруппировать_61" data-name="Сгруппировать 61" transform="translate(5.824 21.149)">
    <g id="Сгруппировать_58" data-name="Сгруппировать 58">
      <circle id="Эллипс_29" data-name="Эллипс 29" cx="1.425" cy="1.425" r="1.425" fill="#242568"/>
    </g>
    <g id="Сгруппировать_59" data-name="Сгруппировать 59" transform="translate(9.502)">
      <circle id="Эллипс_30" data-name="Эллипс 30" cx="1.425" cy="1.425" r="1.425" fill="#242568"/>
    </g>
    <g id="Сгруппировать_60" data-name="Сгруппировать 60" transform="translate(4.751)">
      <circle id="Эллипс_31" data-name="Эллипс 31" cx="1.425" cy="1.425" r="1.425" fill="#242568"/>
    </g>
  </g>
  <g id="Сгруппировать_65" data-name="Сгруппировать 65" transform="translate(21.149 5.824)">
    <g id="Сгруппировать_62" data-name="Сгруппировать 62">
      <circle id="Эллипс_32" data-name="Эллипс 32" cx="1.425" cy="1.425" r="1.425" fill="#242568"/>
    </g>
    <g id="Сгруппировать_63" data-name="Сгруппировать 63" transform="translate(0 9.502)">
      <circle id="Эллипс_33" data-name="Эллипс 33" cx="1.425" cy="1.425" r="1.425" fill="#242568"/>
    </g>
    <g id="Сгруппировать_64" data-name="Сгруппировать 64" transform="translate(0 4.751)">
      <circle id="Эллипс_34" data-name="Эллипс 34" cx="1.425" cy="1.425" r="1.425" fill="#242568"/>
    </g>
  </g>
  <g id="Сгруппировать_69" data-name="Сгруппировать 69" transform="translate(0 5.824)">
    <g id="Сгруппировать_66" data-name="Сгруппировать 66">
      <circle id="Эллипс_35" data-name="Эллипс 35" cx="1.425" cy="1.425" r="1.425" fill="#242568"/>
    </g>
    <g id="Сгруппировать_67" data-name="Сгруппировать 67" transform="translate(0 9.502)">
      <circle id="Эллипс_36" data-name="Эллипс 36" cx="1.425" cy="1.425" r="1.425" fill="#242568"/>
    </g>
    <g id="Сгруппировать_68" data-name="Сгруппировать 68" transform="translate(0 4.751)">
      <circle id="Эллипс_37" data-name="Эллипс 37" cx="1.425" cy="1.425" r="1.425" fill="#242568"/>
    </g>
  </g>
  <g id="Сгруппировать_70" data-name="Сгруппировать 70" transform="translate(6.499 6.499)">
    <path id="Контур_345" data-name="Контур 345" d="M719.88-273.983h-9.5a.75.75,0,0,1-.75-.75v-4.751a.747.747,0,0,1,.22-.53l4.751-4.751a.747.747,0,0,1,.53-.22h4.751a.75.75,0,0,1,.75.75v9.5A.75.75,0,0,1,719.88-273.983Zm-8.752-1.5h8v-8h-3.691l-4.311,4.312Z" transform="translate(-709.628 284.985)" fill="#ea5e20"/>
  </g>
</svg>
