<svg id="favorites" xmlns="http://www.w3.org/2000/svg" width="24" height="23.281" viewBox="0 0 24 23.281">
  <path id="Контур_36" data-name="Контур 36" d="M256.457,197.692h-1.042c-1.176-1.2-11.48-11.886-11.48-15.8,0-4.125,3.027-7.481,6.746-7.481a6.524,6.524,0,0,1,5.254,2.79,6.518,6.518,0,0,1,5.253-2.79c3.72,0,6.747,3.356,6.747,7.481C267.936,185.806,257.632,196.487,256.457,197.692Zm-5.775-21.78c-2.91,0-5.277,2.683-5.277,5.981,0,2.383,6.251,9.741,10.531,14.2,4.28-4.461,10.531-11.819,10.531-14.2,0-3.3-2.368-5.981-5.278-5.981a5.219,5.219,0,0,0-4.6,3.051h-1.31A5.221,5.221,0,0,0,250.682,175.912Z" transform="translate(-243.935 -174.411)" fill="#7b7b8d"/>
  <path id="Контур_36-2" data-name="Контур 36" d="M266.467,181.893c0-3.3-2.368-5.981-5.278-5.981a5.219,5.219,0,0,0-4.6,3.051l-.654-.061v-1.7a6.518,6.518,0,0,1,5.253-2.79c3.72,0,6.747,3.356,6.747,7.481Z" transform="translate(-243.935 -174.411)" fill="#ea5e20"/>
</svg>
