<svg xmlns="http://www.w3.org/2000/svg" width="24" height="13.49" viewBox="0 0 24 13.49">
  <g id="key" transform="translate(-18 -23)">
    <circle id="Эллипс_6" data-name="Эллипс 6" cx="1.404" cy="1.404" r="1.404" transform="translate(23.286 28.332)" fill="#ea5e20"/>
    <path id="Контур_35" data-name="Контур 35" d="M363.935-429.094h-7.327a6.765,6.765,0,0,0-6.127-3.937,6.753,6.753,0,0,0-6.745,6.745,6.753,6.753,0,0,0,6.745,6.745,6.767,6.767,0,0,0,6.127-3.937h11.128v-3.091Zm2.269,4.084H355.559l-.184.5a5.228,5.228,0,0,1-4.894,3.434,5.219,5.219,0,0,1-5.213-5.213,5.219,5.219,0,0,1,5.213-5.213,5.226,5.226,0,0,1,4.894,3.433l.184.5h7.913l2.732,1.815Z" transform="translate(-325.736 456.031)" fill="#fff"/>
  </g>
</svg>
