<svg xmlns="http://www.w3.org/2000/svg" width="22.003" height="24" viewBox="0 0 22.003 24">
  <g id="Operator" transform="translate(-468.336 491.981)">
    <path id="Контур_37" data-name="Контур 37" d="M478.069-481.4a1.618,1.618,0,0,0-1.619-1.618,1.618,1.618,0,0,0-1.619,1.618,1.619,1.619,0,0,0,1.619,1.619A1.619,1.619,0,0,0,478.069-481.4Z" fill="#ea5e20"/>
    <path id="Контур_38" data-name="Контур 38" d="M483.849-481.4a1.618,1.618,0,0,0-1.619-1.618,1.618,1.618,0,0,0-1.619,1.618,1.619,1.619,0,0,0,1.619,1.619A1.619,1.619,0,0,0,483.849-481.4Z" fill="#ea5e20"/>
    <path id="Контур_39" data-name="Контур 39" d="M490.339-480.6a2.883,2.883,0,0,0-2.65-2.865v-.17a8.359,8.359,0,0,0-8.349-8.349,8.3,8.3,0,0,0-5.2,1.827h-.075c0,.018.005.035.005.052a8.335,8.335,0,0,0-3.08,6.47v.239a2.884,2.884,0,0,0-2.655,2.866,2.885,2.885,0,0,0,2.655,2.866l1.532.02v-5.991a6.794,6.794,0,0,1,2.058-4.873c1.453,2.273,5.884,3.877,11.52,4.041a6.72,6.72,0,0,1,.056.832v5.879a6.784,6.784,0,0,1-3.6,5.992,2.489,2.489,0,0,0-2.235-1.408h-1.972a2.5,2.5,0,0,0-2.495,2.5v.2a2.5,2.5,0,0,0,2.495,2.5h1.972a2.491,2.491,0,0,0,2.464-2.185,8.315,8.315,0,0,0,4.9-7.565A2.884,2.884,0,0,0,490.339-480.6Zm-20.471,0a1.357,1.357,0,0,1,1.123-1.334v2.668A1.357,1.357,0,0,1,469.868-480.6Zm11.421,10.12a.964.964,0,0,1-.963.964h-1.972a.965.965,0,0,1-.963-.964v-.2a.964.964,0,0,1,.963-.964h1.972a.964.964,0,0,1,.963.964ZM475.8-489.445a6.762,6.762,0,0,1,3.543-1.005,6.822,6.822,0,0,1,6.382,4.443C480.459-486.239,476.675-487.82,475.8-489.445Zm11.892,10.182v-2.667a1.357,1.357,0,0,1,1.118,1.333A1.358,1.358,0,0,1,487.689-479.263Z" fill="#ea5e20"/>
  </g>
</svg>
